<svg width="295" height="180" viewBox="0 0 295 180" fill="none" xmlns="http://www.w3.org/2000/svg">
<path d="M6.95175 174.128C6.63175 174.128 6.38108 174.043 6.19975 173.872C6.01842 173.691 5.92775 173.435 5.92775 173.104V171.856H1.97575C1.64508 171.856 1.37842 171.787 1.17575 171.648C0.98375 171.509 0.88775 171.291 0.88775 170.992C0.88775 170.821 0.930417 170.635 1.01575 170.432C1.11175 170.229 1.27708 169.963 1.51175 169.632L5.89575 163.28C6.04508 163.056 6.21042 162.885 6.39175 162.768C6.57308 162.651 6.78108 162.592 7.01575 162.592C7.29308 162.592 7.52242 162.677 7.70375 162.848C7.88508 163.008 7.97575 163.264 7.97575 163.616V170.16H8.75975C9.06908 170.16 9.29842 170.235 9.44775 170.384C9.60775 170.523 9.68775 170.731 9.68775 171.008C9.68775 171.285 9.60775 171.499 9.44775 171.648C9.29842 171.787 9.06908 171.856 8.75975 171.856H7.97575V173.104C7.97575 173.435 7.88508 173.691 7.70375 173.872C7.52242 174.043 7.27175 174.128 6.95175 174.128ZM5.92775 170.16V165.168H6.39175L2.61575 170.704V170.16H5.92775ZM14.7375 174.16C13.4042 174.16 12.3855 173.659 11.6815 172.656C10.9775 171.643 10.6255 170.203 10.6255 168.336C10.6255 167.077 10.7802 166.021 11.0895 165.168C11.4095 164.304 11.8735 163.653 12.4815 163.216C13.1002 162.779 13.8522 162.56 14.7375 162.56C16.0815 162.56 17.1002 163.051 17.7935 164.032C18.4975 165.013 18.8495 166.443 18.8495 168.32C18.8495 169.568 18.6895 170.629 18.3695 171.504C18.0602 172.368 17.6015 173.029 16.9935 173.488C16.3855 173.936 15.6335 174.16 14.7375 174.16ZM14.7375 172.48C15.4628 172.48 15.9962 172.144 16.3375 171.472C16.6895 170.8 16.8655 169.749 16.8655 168.32C16.8655 166.891 16.6895 165.856 16.3375 165.216C15.9962 164.565 15.4628 164.24 14.7375 164.24C14.0228 164.24 13.4895 164.565 13.1375 165.216C12.7855 165.856 12.6095 166.891 12.6095 168.32C12.6095 169.749 12.7855 170.8 13.1375 171.472C13.4895 172.144 14.0228 172.48 14.7375 172.48ZM24.7953 173.872C24.6886 174.064 24.5553 174.187 24.3953 174.24C24.2459 174.304 24.0913 174.315 23.9313 174.272C23.7819 174.24 23.6539 174.165 23.5473 174.048C23.4406 173.941 23.3766 173.808 23.3553 173.648C23.3339 173.477 23.3766 173.296 23.4833 173.104L29.3873 162.864C29.4939 162.672 29.6219 162.544 29.7713 162.48C29.9313 162.416 30.0859 162.405 30.2353 162.448C30.3846 162.48 30.5126 162.555 30.6193 162.672C30.7259 162.789 30.7899 162.933 30.8113 163.104C30.8433 163.264 30.8059 163.435 30.6993 163.616L24.7953 173.872ZM23.0833 169.456C22.1873 169.456 21.4886 169.147 20.9873 168.528C20.4859 167.909 20.2353 167.067 20.2353 166C20.2353 165.285 20.3473 164.672 20.5713 164.16C20.7953 163.648 21.1206 163.253 21.5473 162.976C21.9739 162.699 22.4859 162.56 23.0833 162.56C23.9793 162.56 24.6779 162.869 25.1793 163.488C25.6806 164.096 25.9313 164.933 25.9313 166C25.9313 166.715 25.8193 167.333 25.5953 167.856C25.3713 168.368 25.0459 168.763 24.6193 169.04C24.1926 169.317 23.6806 169.456 23.0833 169.456ZM23.0833 168.112C23.3393 168.112 23.5579 168.037 23.7393 167.888C23.9206 167.728 24.0593 167.493 24.1553 167.184C24.2513 166.875 24.2993 166.48 24.2993 166C24.2993 165.285 24.1926 164.757 23.9793 164.416C23.7659 164.075 23.4673 163.904 23.0833 163.904C22.8273 163.904 22.6086 163.979 22.4273 164.128C22.2459 164.277 22.1073 164.507 22.0113 164.816C21.9153 165.125 21.8673 165.52 21.8673 166C21.8673 166.725 21.9739 167.259 22.1873 167.6C22.4006 167.941 22.6993 168.112 23.0833 168.112ZM31.1153 174.16C30.2193 174.16 29.5206 173.851 29.0193 173.232C28.5179 172.613 28.2673 171.771 28.2673 170.704C28.2673 169.989 28.3793 169.376 28.6033 168.864C28.8273 168.352 29.1526 167.957 29.5793 167.68C30.0059 167.403 30.5179 167.264 31.1153 167.264C32.0113 167.264 32.7099 167.573 33.2113 168.192C33.7126 168.8 33.9633 169.637 33.9633 170.704C33.9633 171.419 33.8513 172.037 33.6273 172.56C33.4033 173.072 33.0779 173.467 32.6513 173.744C32.2246 174.021 31.7126 174.16 31.1153 174.16ZM31.1153 172.816C31.3713 172.816 31.5899 172.741 31.7713 172.592C31.9526 172.443 32.0913 172.213 32.1873 171.904C32.2833 171.584 32.3313 171.184 32.3313 170.704C32.3313 169.989 32.2246 169.461 32.0113 169.12C31.7979 168.779 31.4993 168.608 31.1153 168.608C30.8593 168.608 30.6406 168.683 30.4593 168.832C30.2779 168.981 30.1393 169.211 30.0433 169.52C29.9473 169.829 29.8993 170.224 29.8993 170.704C29.8993 171.429 30.0059 171.963 30.2193 172.304C30.4326 172.645 30.7313 172.816 31.1153 172.816Z" fill="#9588E8"/>
<rect x="12" width="12" height="150" rx="6" fill="#DBD7F4"/>
<rect x="12" y="45" width="12" height="60" rx="6" fill="#9588E8"/>
<path d="M56.9198 174.16C56.3438 174.16 55.7464 174.085 55.1278 173.936C54.5091 173.787 53.9704 173.563 53.5118 173.264C53.2984 173.125 53.1544 172.965 53.0798 172.784C53.0051 172.603 52.9838 172.432 53.0158 172.272C53.0584 172.101 53.1384 171.957 53.2558 171.84C53.3838 171.723 53.5384 171.653 53.7198 171.632C53.9118 171.611 54.1198 171.659 54.3438 171.776C54.7811 172.011 55.2024 172.181 55.6078 172.288C56.0131 172.384 56.4291 172.432 56.8558 172.432C57.3251 172.432 57.7198 172.368 58.0398 172.24C58.3598 172.112 58.5998 171.92 58.7598 171.664C58.9304 171.408 59.0158 171.099 59.0158 170.736C59.0158 170.203 58.8344 169.808 58.4718 169.552C58.1198 169.285 57.6024 169.152 56.9198 169.152H55.8958C55.5971 169.152 55.3678 169.077 55.2078 168.928C55.0584 168.779 54.9838 168.571 54.9838 168.304C54.9838 168.037 55.0584 167.829 55.2078 167.68C55.3678 167.531 55.5971 167.456 55.8958 167.456H56.7278C57.1331 167.456 57.4798 167.392 57.7678 167.264C58.0558 167.125 58.2798 166.933 58.4398 166.688C58.5998 166.443 58.6798 166.144 58.6798 165.792C58.6798 165.301 58.5144 164.928 58.1838 164.672C57.8638 164.416 57.3944 164.288 56.7758 164.288C56.3811 164.288 56.0078 164.336 55.6558 164.432C55.3144 164.517 54.9358 164.683 54.5198 164.928C54.3278 165.045 54.1411 165.093 53.9598 165.072C53.7891 165.051 53.6451 164.981 53.5278 164.864C53.4104 164.747 53.3304 164.608 53.2878 164.448C53.2451 164.277 53.2558 164.107 53.3198 163.936C53.3838 163.755 53.5171 163.6 53.7198 163.472C54.1784 163.173 54.6851 162.949 55.2398 162.8C55.7944 162.64 56.3651 162.56 56.9518 162.56C57.7304 162.56 58.3971 162.683 58.9518 162.928C59.5064 163.163 59.9278 163.504 60.2158 163.952C60.5144 164.389 60.6638 164.923 60.6638 165.552C60.6638 166 60.5784 166.411 60.4078 166.784C60.2371 167.147 59.9971 167.456 59.6878 167.712C59.3784 167.968 59.0051 168.149 58.5678 168.256V168.064C59.3358 168.192 59.9331 168.512 60.3598 169.024C60.7864 169.525 60.9998 170.155 60.9998 170.912C60.9998 171.573 60.8344 172.149 60.5038 172.64C60.1731 173.131 59.7038 173.509 59.0958 173.776C58.4878 174.032 57.7624 174.16 56.9198 174.16ZM66.7375 174.16C65.4042 174.16 64.3855 173.659 63.6815 172.656C62.9775 171.643 62.6255 170.203 62.6255 168.336C62.6255 167.077 62.7802 166.021 63.0895 165.168C63.4095 164.304 63.8735 163.653 64.4815 163.216C65.1002 162.779 65.8522 162.56 66.7375 162.56C68.0815 162.56 69.1002 163.051 69.7935 164.032C70.4975 165.013 70.8495 166.443 70.8495 168.32C70.8495 169.568 70.6895 170.629 70.3695 171.504C70.0602 172.368 69.6015 173.029 68.9935 173.488C68.3855 173.936 67.6335 174.16 66.7375 174.16ZM66.7375 172.48C67.4628 172.48 67.9962 172.144 68.3375 171.472C68.6895 170.8 68.8655 169.749 68.8655 168.32C68.8655 166.891 68.6895 165.856 68.3375 165.216C67.9962 164.565 67.4628 164.24 66.7375 164.24C66.0228 164.24 65.4895 164.565 65.1375 165.216C64.7855 165.856 64.6095 166.891 64.6095 168.32C64.6095 169.749 64.7855 170.8 65.1375 171.472C65.4895 172.144 66.0228 172.48 66.7375 172.48ZM76.7953 173.872C76.6886 174.064 76.5553 174.187 76.3953 174.24C76.2459 174.304 76.0913 174.315 75.9313 174.272C75.7819 174.24 75.6539 174.165 75.5473 174.048C75.4406 173.941 75.3766 173.808 75.3553 173.648C75.3339 173.477 75.3766 173.296 75.4833 173.104L81.3873 162.864C81.4939 162.672 81.6219 162.544 81.7713 162.48C81.9313 162.416 82.0859 162.405 82.2353 162.448C82.3846 162.48 82.5126 162.555 82.6193 162.672C82.7259 162.789 82.7899 162.933 82.8113 163.104C82.8433 163.264 82.8059 163.435 82.6993 163.616L76.7953 173.872ZM75.0833 169.456C74.1873 169.456 73.4886 169.147 72.9873 168.528C72.4859 167.909 72.2353 167.067 72.2353 166C72.2353 165.285 72.3473 164.672 72.5713 164.16C72.7953 163.648 73.1206 163.253 73.5473 162.976C73.9739 162.699 74.4859 162.56 75.0833 162.56C75.9793 162.56 76.6779 162.869 77.1793 163.488C77.6806 164.096 77.9313 164.933 77.9313 166C77.9313 166.715 77.8193 167.333 77.5953 167.856C77.3713 168.368 77.0459 168.763 76.6193 169.04C76.1926 169.317 75.6806 169.456 75.0833 169.456ZM75.0833 168.112C75.3393 168.112 75.5579 168.037 75.7393 167.888C75.9206 167.728 76.0593 167.493 76.1553 167.184C76.2513 166.875 76.2993 166.48 76.2993 166C76.2993 165.285 76.1926 164.757 75.9793 164.416C75.7659 164.075 75.4673 163.904 75.0833 163.904C74.8273 163.904 74.6086 163.979 74.4273 164.128C74.2459 164.277 74.1073 164.507 74.0113 164.816C73.9153 165.125 73.8673 165.52 73.8673 166C73.8673 166.725 73.9739 167.259 74.1873 167.6C74.4006 167.941 74.6993 168.112 75.0833 168.112ZM83.1153 174.16C82.2193 174.16 81.5206 173.851 81.0193 173.232C80.5179 172.613 80.2673 171.771 80.2673 170.704C80.2673 169.989 80.3793 169.376 80.6033 168.864C80.8273 168.352 81.1526 167.957 81.5793 167.68C82.0059 167.403 82.5179 167.264 83.1153 167.264C84.0113 167.264 84.7099 167.573 85.2113 168.192C85.7126 168.8 85.9633 169.637 85.9633 170.704C85.9633 171.419 85.8513 172.037 85.6273 172.56C85.4033 173.072 85.0779 173.467 84.6513 173.744C84.2246 174.021 83.7126 174.16 83.1153 174.16ZM83.1153 172.816C83.3713 172.816 83.5899 172.741 83.7713 172.592C83.9526 172.443 84.0913 172.213 84.1873 171.904C84.2833 171.584 84.3313 171.184 84.3313 170.704C84.3313 169.989 84.2246 169.461 84.0113 169.12C83.7979 168.779 83.4993 168.608 83.1153 168.608C82.8593 168.608 82.6406 168.683 82.4593 168.832C82.2779 168.981 82.1393 169.211 82.0433 169.52C81.9473 169.829 81.8993 170.224 81.8993 170.704C81.8993 171.429 82.0059 171.963 82.2193 172.304C82.4326 172.645 82.7313 172.816 83.1153 172.816Z" fill="#9588E8"/>
<rect x="64" width="12" height="150" rx="6" fill="#DBD7F4"/>
<rect x="64" y="25" width="12" height="55" rx="6" fill="#9588E8"/>
<path d="M109.56 174.16C108.632 174.16 107.837 173.941 107.176 173.504C106.525 173.056 106.029 172.416 105.688 171.584C105.346 170.752 105.176 169.744 105.176 168.56C105.176 167.6 105.282 166.752 105.496 166.016C105.72 165.269 106.04 164.64 106.456 164.128C106.872 163.616 107.378 163.227 107.976 162.96C108.584 162.693 109.266 162.56 110.024 162.56C110.493 162.56 110.968 162.635 111.448 162.784C111.938 162.923 112.397 163.136 112.824 163.424C112.994 163.531 113.106 163.669 113.16 163.84C113.213 164.011 113.218 164.181 113.176 164.352C113.144 164.512 113.069 164.656 112.952 164.784C112.845 164.901 112.706 164.976 112.536 165.008C112.365 165.029 112.178 164.981 111.976 164.864C111.613 164.651 111.272 164.501 110.952 164.416C110.632 164.331 110.312 164.288 109.992 164.288C109.373 164.288 108.85 164.432 108.424 164.72C107.997 165.008 107.672 165.44 107.448 166.016C107.234 166.592 107.128 167.312 107.128 168.176V169.376H106.936C107.021 168.832 107.197 168.368 107.464 167.984C107.741 167.589 108.093 167.291 108.52 167.088C108.946 166.875 109.421 166.768 109.944 166.768C110.594 166.768 111.17 166.923 111.672 167.232C112.173 167.541 112.568 167.968 112.856 168.512C113.144 169.056 113.288 169.68 113.288 170.384C113.288 171.109 113.128 171.76 112.808 172.336C112.498 172.901 112.061 173.349 111.496 173.68C110.941 174 110.296 174.16 109.56 174.16ZM109.448 172.528C109.832 172.528 110.168 172.443 110.456 172.272C110.754 172.101 110.984 171.861 111.144 171.552C111.304 171.232 111.384 170.869 111.384 170.464C111.384 170.048 111.304 169.685 111.144 169.376C110.984 169.067 110.754 168.827 110.456 168.656C110.168 168.475 109.832 168.384 109.448 168.384C109.064 168.384 108.728 168.475 108.44 168.656C108.152 168.827 107.922 169.067 107.752 169.376C107.592 169.685 107.512 170.048 107.512 170.464C107.512 170.869 107.592 171.232 107.752 171.552C107.922 171.861 108.152 172.101 108.44 172.272C108.728 172.443 109.064 172.528 109.448 172.528ZM118.834 174.16C118.268 174.16 117.692 174.085 117.106 173.936C116.519 173.787 115.98 173.557 115.49 173.248C115.287 173.12 115.148 172.971 115.074 172.8C115.01 172.619 114.994 172.443 115.026 172.272C115.068 172.091 115.148 171.941 115.266 171.824C115.394 171.696 115.543 171.621 115.714 171.6C115.895 171.579 116.092 171.627 116.306 171.744C116.7 171.968 117.1 172.139 117.506 172.256C117.911 172.373 118.343 172.432 118.802 172.432C119.25 172.432 119.634 172.352 119.954 172.192C120.274 172.032 120.519 171.808 120.69 171.52C120.86 171.232 120.946 170.896 120.946 170.512C120.946 169.915 120.764 169.435 120.402 169.072C120.039 168.699 119.543 168.512 118.914 168.512C118.572 168.512 118.242 168.571 117.922 168.688C117.602 168.795 117.287 168.987 116.978 169.264C116.882 169.349 116.759 169.435 116.61 169.52C116.46 169.595 116.3 169.632 116.13 169.632C115.863 169.632 115.66 169.563 115.522 169.424C115.383 169.285 115.314 169.093 115.314 168.848V163.616C115.314 163.328 115.388 163.109 115.538 162.96C115.698 162.8 115.922 162.72 116.21 162.72H121.474C121.762 162.72 121.98 162.795 122.13 162.944C122.29 163.083 122.37 163.291 122.37 163.568C122.37 163.835 122.29 164.043 122.13 164.192C121.98 164.341 121.762 164.416 121.474 164.416H117.314V168H116.786C117.063 167.627 117.431 167.339 117.89 167.136C118.348 166.933 118.85 166.832 119.394 166.832C120.108 166.832 120.727 166.987 121.25 167.296C121.783 167.595 122.194 168.016 122.482 168.56C122.78 169.093 122.93 169.717 122.93 170.432C122.93 171.168 122.764 171.819 122.434 172.384C122.103 172.939 121.628 173.376 121.01 173.696C120.402 174.005 119.676 174.16 118.834 174.16ZM128.795 173.872C128.689 174.064 128.555 174.187 128.395 174.24C128.246 174.304 128.091 174.315 127.931 174.272C127.782 174.24 127.654 174.165 127.547 174.048C127.441 173.941 127.377 173.808 127.355 173.648C127.334 173.477 127.377 173.296 127.483 173.104L133.387 162.864C133.494 162.672 133.622 162.544 133.771 162.48C133.931 162.416 134.086 162.405 134.235 162.448C134.385 162.48 134.513 162.555 134.619 162.672C134.726 162.789 134.79 162.933 134.811 163.104C134.843 163.264 134.806 163.435 134.699 163.616L128.795 173.872ZM127.083 169.456C126.187 169.456 125.489 169.147 124.987 168.528C124.486 167.909 124.235 167.067 124.235 166C124.235 165.285 124.347 164.672 124.571 164.16C124.795 163.648 125.121 163.253 125.547 162.976C125.974 162.699 126.486 162.56 127.083 162.56C127.979 162.56 128.678 162.869 129.179 163.488C129.681 164.096 129.931 164.933 129.931 166C129.931 166.715 129.819 167.333 129.595 167.856C129.371 168.368 129.046 168.763 128.619 169.04C128.193 169.317 127.681 169.456 127.083 169.456ZM127.083 168.112C127.339 168.112 127.558 168.037 127.739 167.888C127.921 167.728 128.059 167.493 128.155 167.184C128.251 166.875 128.299 166.48 128.299 166C128.299 165.285 128.193 164.757 127.979 164.416C127.766 164.075 127.467 163.904 127.083 163.904C126.827 163.904 126.609 163.979 126.427 164.128C126.246 164.277 126.107 164.507 126.011 164.816C125.915 165.125 125.867 165.52 125.867 166C125.867 166.725 125.974 167.259 126.187 167.6C126.401 167.941 126.699 168.112 127.083 168.112ZM135.115 174.16C134.219 174.16 133.521 173.851 133.019 173.232C132.518 172.613 132.267 171.771 132.267 170.704C132.267 169.989 132.379 169.376 132.603 168.864C132.827 168.352 133.153 167.957 133.579 167.68C134.006 167.403 134.518 167.264 135.115 167.264C136.011 167.264 136.71 167.573 137.211 168.192C137.713 168.8 137.963 169.637 137.963 170.704C137.963 171.419 137.851 172.037 137.627 172.56C137.403 173.072 137.078 173.467 136.651 173.744C136.225 174.021 135.713 174.16 135.115 174.16ZM135.115 172.816C135.371 172.816 135.59 172.741 135.771 172.592C135.953 172.443 136.091 172.213 136.187 171.904C136.283 171.584 136.331 171.184 136.331 170.704C136.331 169.989 136.225 169.461 136.011 169.12C135.798 168.779 135.499 168.608 135.115 168.608C134.859 168.608 134.641 168.683 134.459 168.832C134.278 168.981 134.139 169.211 134.043 169.52C133.947 169.829 133.899 170.224 133.899 170.704C133.899 171.429 134.006 171.963 134.219 172.304C134.433 172.645 134.731 172.816 135.115 172.816Z" fill="#9588E8"/>
<rect x="116" width="12" height="150" rx="6" fill="#DBD7F4"/>
<rect x="116" y="35" width="12" height="85" rx="6" fill="#9588E8"/>
<path d="M161.24 174.16C160.674 174.16 160.098 174.085 159.512 173.936C158.925 173.787 158.386 173.557 157.896 173.248C157.693 173.12 157.554 172.971 157.48 172.8C157.416 172.619 157.4 172.443 157.432 172.272C157.474 172.091 157.554 171.941 157.672 171.824C157.8 171.696 157.949 171.621 158.12 171.6C158.301 171.579 158.498 171.627 158.712 171.744C159.106 171.968 159.506 172.139 159.912 172.256C160.317 172.373 160.749 172.432 161.208 172.432C161.656 172.432 162.04 172.352 162.36 172.192C162.68 172.032 162.925 171.808 163.096 171.52C163.266 171.232 163.352 170.896 163.352 170.512C163.352 169.915 163.17 169.435 162.808 169.072C162.445 168.699 161.949 168.512 161.32 168.512C160.978 168.512 160.648 168.571 160.328 168.688C160.008 168.795 159.693 168.987 159.384 169.264C159.288 169.349 159.165 169.435 159.016 169.52C158.866 169.595 158.706 169.632 158.536 169.632C158.269 169.632 158.066 169.563 157.928 169.424C157.789 169.285 157.72 169.093 157.72 168.848V163.616C157.72 163.328 157.794 163.109 157.944 162.96C158.104 162.8 158.328 162.72 158.616 162.72H163.88C164.168 162.72 164.386 162.795 164.536 162.944C164.696 163.083 164.776 163.291 164.776 163.568C164.776 163.835 164.696 164.043 164.536 164.192C164.386 164.341 164.168 164.416 163.88 164.416H159.72V168H159.192C159.469 167.627 159.837 167.339 160.296 167.136C160.754 166.933 161.256 166.832 161.8 166.832C162.514 166.832 163.133 166.987 163.656 167.296C164.189 167.595 164.6 168.016 164.888 168.56C165.186 169.093 165.336 169.717 165.336 170.432C165.336 171.168 165.17 171.819 164.84 172.384C164.509 172.939 164.034 173.376 163.416 173.696C162.808 174.005 162.082 174.16 161.24 174.16ZM170.738 174.16C169.404 174.16 168.386 173.659 167.682 172.656C166.978 171.643 166.626 170.203 166.626 168.336C166.626 167.077 166.78 166.021 167.09 165.168C167.41 164.304 167.874 163.653 168.482 163.216C169.1 162.779 169.852 162.56 170.738 162.56C172.082 162.56 173.1 163.051 173.794 164.032C174.498 165.013 174.85 166.443 174.85 168.32C174.85 169.568 174.69 170.629 174.37 171.504C174.06 172.368 173.602 173.029 172.994 173.488C172.386 173.936 171.634 174.16 170.738 174.16ZM170.738 172.48C171.463 172.48 171.996 172.144 172.338 171.472C172.69 170.8 172.866 169.749 172.866 168.32C172.866 166.891 172.69 165.856 172.338 165.216C171.996 164.565 171.463 164.24 170.738 164.24C170.023 164.24 169.49 164.565 169.138 165.216C168.786 165.856 168.61 166.891 168.61 168.32C168.61 169.749 168.786 170.8 169.138 171.472C169.49 172.144 170.023 172.48 170.738 172.48ZM180.795 173.872C180.689 174.064 180.555 174.187 180.395 174.24C180.246 174.304 180.091 174.315 179.931 174.272C179.782 174.24 179.654 174.165 179.547 174.048C179.441 173.941 179.377 173.808 179.355 173.648C179.334 173.477 179.377 173.296 179.483 173.104L185.387 162.864C185.494 162.672 185.622 162.544 185.771 162.48C185.931 162.416 186.086 162.405 186.235 162.448C186.385 162.48 186.513 162.555 186.619 162.672C186.726 162.789 186.79 162.933 186.811 163.104C186.843 163.264 186.806 163.435 186.699 163.616L180.795 173.872ZM179.083 169.456C178.187 169.456 177.489 169.147 176.987 168.528C176.486 167.909 176.235 167.067 176.235 166C176.235 165.285 176.347 164.672 176.571 164.16C176.795 163.648 177.121 163.253 177.547 162.976C177.974 162.699 178.486 162.56 179.083 162.56C179.979 162.56 180.678 162.869 181.179 163.488C181.681 164.096 181.931 164.933 181.931 166C181.931 166.715 181.819 167.333 181.595 167.856C181.371 168.368 181.046 168.763 180.619 169.04C180.193 169.317 179.681 169.456 179.083 169.456ZM179.083 168.112C179.339 168.112 179.558 168.037 179.739 167.888C179.921 167.728 180.059 167.493 180.155 167.184C180.251 166.875 180.299 166.48 180.299 166C180.299 165.285 180.193 164.757 179.979 164.416C179.766 164.075 179.467 163.904 179.083 163.904C178.827 163.904 178.609 163.979 178.427 164.128C178.246 164.277 178.107 164.507 178.011 164.816C177.915 165.125 177.867 165.52 177.867 166C177.867 166.725 177.974 167.259 178.187 167.6C178.401 167.941 178.699 168.112 179.083 168.112ZM187.115 174.16C186.219 174.16 185.521 173.851 185.019 173.232C184.518 172.613 184.267 171.771 184.267 170.704C184.267 169.989 184.379 169.376 184.603 168.864C184.827 168.352 185.153 167.957 185.579 167.68C186.006 167.403 186.518 167.264 187.115 167.264C188.011 167.264 188.71 167.573 189.211 168.192C189.713 168.8 189.963 169.637 189.963 170.704C189.963 171.419 189.851 172.037 189.627 172.56C189.403 173.072 189.078 173.467 188.651 173.744C188.225 174.021 187.713 174.16 187.115 174.16ZM187.115 172.816C187.371 172.816 187.59 172.741 187.771 172.592C187.953 172.443 188.091 172.213 188.187 171.904C188.283 171.584 188.331 171.184 188.331 170.704C188.331 169.989 188.225 169.461 188.011 169.12C187.798 168.779 187.499 168.608 187.115 168.608C186.859 168.608 186.641 168.683 186.459 168.832C186.278 168.981 186.139 169.211 186.043 169.52C185.947 169.829 185.899 170.224 185.899 170.704C185.899 171.429 186.006 171.963 186.219 172.304C186.433 172.645 186.731 172.816 187.115 172.816Z" fill="#9588E8"/>
<rect x="168" width="12" height="150" rx="6" fill="#DBD7F4"/>
<rect x="168" y="30" width="12" height="70" rx="6" fill="#9588E8"/>
<path d="M212.92 174.16C212.344 174.16 211.746 174.085 211.128 173.936C210.509 173.787 209.97 173.563 209.512 173.264C209.298 173.125 209.154 172.965 209.08 172.784C209.005 172.603 208.984 172.432 209.016 172.272C209.058 172.101 209.138 171.957 209.256 171.84C209.384 171.723 209.538 171.653 209.72 171.632C209.912 171.611 210.12 171.659 210.344 171.776C210.781 172.011 211.202 172.181 211.608 172.288C212.013 172.384 212.429 172.432 212.856 172.432C213.325 172.432 213.72 172.368 214.04 172.24C214.36 172.112 214.6 171.92 214.76 171.664C214.93 171.408 215.016 171.099 215.016 170.736C215.016 170.203 214.834 169.808 214.472 169.552C214.12 169.285 213.602 169.152 212.92 169.152H211.896C211.597 169.152 211.368 169.077 211.208 168.928C211.058 168.779 210.984 168.571 210.984 168.304C210.984 168.037 211.058 167.829 211.208 167.68C211.368 167.531 211.597 167.456 211.896 167.456H212.728C213.133 167.456 213.48 167.392 213.768 167.264C214.056 167.125 214.28 166.933 214.44 166.688C214.6 166.443 214.68 166.144 214.68 165.792C214.68 165.301 214.514 164.928 214.184 164.672C213.864 164.416 213.394 164.288 212.776 164.288C212.381 164.288 212.008 164.336 211.656 164.432C211.314 164.517 210.936 164.683 210.52 164.928C210.328 165.045 210.141 165.093 209.96 165.072C209.789 165.051 209.645 164.981 209.528 164.864C209.41 164.747 209.33 164.608 209.288 164.448C209.245 164.277 209.256 164.107 209.32 163.936C209.384 163.755 209.517 163.6 209.72 163.472C210.178 163.173 210.685 162.949 211.24 162.8C211.794 162.64 212.365 162.56 212.952 162.56C213.73 162.56 214.397 162.683 214.952 162.928C215.506 163.163 215.928 163.504 216.216 163.952C216.514 164.389 216.664 164.923 216.664 165.552C216.664 166 216.578 166.411 216.408 166.784C216.237 167.147 215.997 167.456 215.688 167.712C215.378 167.968 215.005 168.149 214.568 168.256V168.064C215.336 168.192 215.933 168.512 216.36 169.024C216.786 169.525 217 170.155 217 170.912C217 171.573 216.834 172.149 216.504 172.64C216.173 173.131 215.704 173.509 215.096 173.776C214.488 174.032 213.762 174.16 212.92 174.16ZM222.738 174.16C221.404 174.16 220.386 173.659 219.682 172.656C218.978 171.643 218.626 170.203 218.626 168.336C218.626 167.077 218.78 166.021 219.09 165.168C219.41 164.304 219.874 163.653 220.482 163.216C221.1 162.779 221.852 162.56 222.738 162.56C224.082 162.56 225.1 163.051 225.794 164.032C226.498 165.013 226.85 166.443 226.85 168.32C226.85 169.568 226.69 170.629 226.37 171.504C226.06 172.368 225.602 173.029 224.994 173.488C224.386 173.936 223.634 174.16 222.738 174.16ZM222.738 172.48C223.463 172.48 223.996 172.144 224.338 171.472C224.69 170.8 224.866 169.749 224.866 168.32C224.866 166.891 224.69 165.856 224.338 165.216C223.996 164.565 223.463 164.24 222.738 164.24C222.023 164.24 221.49 164.565 221.138 165.216C220.786 165.856 220.61 166.891 220.61 168.32C220.61 169.749 220.786 170.8 221.138 171.472C221.49 172.144 222.023 172.48 222.738 172.48ZM232.795 173.872C232.689 174.064 232.555 174.187 232.395 174.24C232.246 174.304 232.091 174.315 231.931 174.272C231.782 174.24 231.654 174.165 231.547 174.048C231.441 173.941 231.377 173.808 231.355 173.648C231.334 173.477 231.377 173.296 231.483 173.104L237.387 162.864C237.494 162.672 237.622 162.544 237.771 162.48C237.931 162.416 238.086 162.405 238.235 162.448C238.385 162.48 238.513 162.555 238.619 162.672C238.726 162.789 238.79 162.933 238.811 163.104C238.843 163.264 238.806 163.435 238.699 163.616L232.795 173.872ZM231.083 169.456C230.187 169.456 229.489 169.147 228.987 168.528C228.486 167.909 228.235 167.067 228.235 166C228.235 165.285 228.347 164.672 228.571 164.16C228.795 163.648 229.121 163.253 229.547 162.976C229.974 162.699 230.486 162.56 231.083 162.56C231.979 162.56 232.678 162.869 233.179 163.488C233.681 164.096 233.931 164.933 233.931 166C233.931 166.715 233.819 167.333 233.595 167.856C233.371 168.368 233.046 168.763 232.619 169.04C232.193 169.317 231.681 169.456 231.083 169.456ZM231.083 168.112C231.339 168.112 231.558 168.037 231.739 167.888C231.921 167.728 232.059 167.493 232.155 167.184C232.251 166.875 232.299 166.48 232.299 166C232.299 165.285 232.193 164.757 231.979 164.416C231.766 164.075 231.467 163.904 231.083 163.904C230.827 163.904 230.609 163.979 230.427 164.128C230.246 164.277 230.107 164.507 230.011 164.816C229.915 165.125 229.867 165.52 229.867 166C229.867 166.725 229.974 167.259 230.187 167.6C230.401 167.941 230.699 168.112 231.083 168.112ZM239.115 174.16C238.219 174.16 237.521 173.851 237.019 173.232C236.518 172.613 236.267 171.771 236.267 170.704C236.267 169.989 236.379 169.376 236.603 168.864C236.827 168.352 237.153 167.957 237.579 167.68C238.006 167.403 238.518 167.264 239.115 167.264C240.011 167.264 240.71 167.573 241.211 168.192C241.713 168.8 241.963 169.637 241.963 170.704C241.963 171.419 241.851 172.037 241.627 172.56C241.403 173.072 241.078 173.467 240.651 173.744C240.225 174.021 239.713 174.16 239.115 174.16ZM239.115 172.816C239.371 172.816 239.59 172.741 239.771 172.592C239.953 172.443 240.091 172.213 240.187 171.904C240.283 171.584 240.331 171.184 240.331 170.704C240.331 169.989 240.225 169.461 240.011 169.12C239.798 168.779 239.499 168.608 239.115 168.608C238.859 168.608 238.641 168.683 238.459 168.832C238.278 168.981 238.139 169.211 238.043 169.52C237.947 169.829 237.899 170.224 237.899 170.704C237.899 171.429 238.006 171.963 238.219 172.304C238.433 172.645 238.731 172.816 239.115 172.816Z" fill="#9588E8"/>
<rect x="220" width="12" height="150" rx="6" fill="#DBD7F4"/>
<rect x="220" y="24" width="12" height="55" rx="6" fill="#9588E8"/>
<path d="M264.264 174.16C263.805 174.16 263.33 174.091 262.84 173.952C262.349 173.803 261.89 173.584 261.464 173.296C261.293 173.189 261.181 173.051 261.128 172.88C261.074 172.709 261.064 172.544 261.096 172.384C261.138 172.213 261.213 172.069 261.32 171.952C261.437 171.824 261.581 171.749 261.752 171.728C261.922 171.696 262.109 171.739 262.312 171.856C262.674 172.069 263.016 172.219 263.336 172.304C263.656 172.389 263.976 172.432 264.296 172.432C264.914 172.432 265.437 172.288 265.864 172C266.29 171.712 266.61 171.28 266.824 170.704C267.048 170.117 267.16 169.397 267.16 168.544V167.344H267.352C267.277 167.877 267.101 168.341 266.824 168.736C266.546 169.131 266.194 169.435 265.768 169.648C265.341 169.851 264.866 169.952 264.344 169.952C263.704 169.952 263.128 169.797 262.616 169.488C262.114 169.179 261.72 168.752 261.432 168.208C261.144 167.653 261 167.029 261 166.336C261 165.6 261.154 164.949 261.464 164.384C261.784 163.819 262.226 163.376 262.792 163.056C263.357 162.725 264.002 162.56 264.728 162.56C265.666 162.56 266.461 162.779 267.112 163.216C267.762 163.653 268.258 164.293 268.6 165.136C268.941 165.968 269.112 166.976 269.112 168.16C269.112 169.12 269 169.973 268.776 170.72C268.562 171.456 268.248 172.08 267.832 172.592C267.416 173.104 266.904 173.493 266.296 173.76C265.698 174.027 265.021 174.16 264.264 174.16ZM264.856 168.32C265.24 168.32 265.576 168.235 265.864 168.064C266.162 167.883 266.392 167.637 266.552 167.328C266.712 167.008 266.792 166.645 266.792 166.24C266.792 165.824 266.712 165.461 266.552 165.152C266.392 164.843 266.162 164.603 265.864 164.432C265.576 164.261 265.24 164.176 264.856 164.176C264.472 164.176 264.136 164.261 263.848 164.432C263.56 164.603 263.33 164.843 263.16 165.152C263 165.461 262.92 165.824 262.92 166.24C262.92 166.645 263 167.008 263.16 167.328C263.33 167.637 263.56 167.883 263.848 168.064C264.136 168.235 264.472 168.32 264.856 168.32ZM274.738 174.16C273.404 174.16 272.386 173.659 271.682 172.656C270.978 171.643 270.626 170.203 270.626 168.336C270.626 167.077 270.78 166.021 271.09 165.168C271.41 164.304 271.874 163.653 272.482 163.216C273.1 162.779 273.852 162.56 274.738 162.56C276.082 162.56 277.1 163.051 277.794 164.032C278.498 165.013 278.85 166.443 278.85 168.32C278.85 169.568 278.69 170.629 278.37 171.504C278.06 172.368 277.602 173.029 276.994 173.488C276.386 173.936 275.634 174.16 274.738 174.16ZM274.738 172.48C275.463 172.48 275.996 172.144 276.338 171.472C276.69 170.8 276.866 169.749 276.866 168.32C276.866 166.891 276.69 165.856 276.338 165.216C275.996 164.565 275.463 164.24 274.738 164.24C274.023 164.24 273.49 164.565 273.138 165.216C272.786 165.856 272.61 166.891 272.61 168.32C272.61 169.749 272.786 170.8 273.138 171.472C273.49 172.144 274.023 172.48 274.738 172.48ZM284.795 173.872C284.689 174.064 284.555 174.187 284.395 174.24C284.246 174.304 284.091 174.315 283.931 174.272C283.782 174.24 283.654 174.165 283.547 174.048C283.441 173.941 283.377 173.808 283.355 173.648C283.334 173.477 283.377 173.296 283.483 173.104L289.387 162.864C289.494 162.672 289.622 162.544 289.771 162.48C289.931 162.416 290.086 162.405 290.235 162.448C290.385 162.48 290.513 162.555 290.619 162.672C290.726 162.789 290.79 162.933 290.811 163.104C290.843 163.264 290.806 163.435 290.699 163.616L284.795 173.872ZM283.083 169.456C282.187 169.456 281.489 169.147 280.987 168.528C280.486 167.909 280.235 167.067 280.235 166C280.235 165.285 280.347 164.672 280.571 164.16C280.795 163.648 281.121 163.253 281.547 162.976C281.974 162.699 282.486 162.56 283.083 162.56C283.979 162.56 284.678 162.869 285.179 163.488C285.681 164.096 285.931 164.933 285.931 166C285.931 166.715 285.819 167.333 285.595 167.856C285.371 168.368 285.046 168.763 284.619 169.04C284.193 169.317 283.681 169.456 283.083 169.456ZM283.083 168.112C283.339 168.112 283.558 168.037 283.739 167.888C283.921 167.728 284.059 167.493 284.155 167.184C284.251 166.875 284.299 166.48 284.299 166C284.299 165.285 284.193 164.757 283.979 164.416C283.766 164.075 283.467 163.904 283.083 163.904C282.827 163.904 282.609 163.979 282.427 164.128C282.246 164.277 282.107 164.507 282.011 164.816C281.915 165.125 281.867 165.52 281.867 166C281.867 166.725 281.974 167.259 282.187 167.6C282.401 167.941 282.699 168.112 283.083 168.112ZM291.115 174.16C290.219 174.16 289.521 173.851 289.019 173.232C288.518 172.613 288.267 171.771 288.267 170.704C288.267 169.989 288.379 169.376 288.603 168.864C288.827 168.352 289.153 167.957 289.579 167.68C290.006 167.403 290.518 167.264 291.115 167.264C292.011 167.264 292.71 167.573 293.211 168.192C293.713 168.8 293.963 169.637 293.963 170.704C293.963 171.419 293.851 172.037 293.627 172.56C293.403 173.072 293.078 173.467 292.651 173.744C292.225 174.021 291.713 174.16 291.115 174.16ZM291.115 172.816C291.371 172.816 291.59 172.741 291.771 172.592C291.953 172.443 292.091 172.213 292.187 171.904C292.283 171.584 292.331 171.184 292.331 170.704C292.331 169.989 292.225 169.461 292.011 169.12C291.798 168.779 291.499 168.608 291.115 168.608C290.859 168.608 290.641 168.683 290.459 168.832C290.278 168.981 290.139 169.211 290.043 169.52C289.947 169.829 289.899 170.224 289.899 170.704C289.899 171.429 290.006 171.963 290.219 172.304C290.433 172.645 290.731 172.816 291.115 172.816Z" fill="#9588E8"/>
<rect x="272" width="12" height="150" rx="6" fill="#DBD7F4"/>
<rect x="272" y="15" width="12" height="120" rx="6" fill="#9588E8"/>
</svg>
