<svg width="346" height="230" viewBox="0 0 346 230" fill="none" xmlns="http://www.w3.org/2000/svg">
<rect y="130" width="50" height="70" fill="#B5ACEF"/>
<path d="M13.8532 224.112C13.5545 224.123 13.3199 224.043 13.1492 223.872C12.9785 223.701 12.8932 223.483 12.8932 223.216C12.8932 223.013 12.9572 222.837 13.0852 222.688C13.2025 222.528 13.3785 222.443 13.6132 222.432L14.0932 222.4C14.5625 222.368 14.9145 222.224 15.1492 221.968C15.3945 221.701 15.5172 221.323 15.5172 220.832V213.632C15.5172 213.291 15.6025 213.035 15.7732 212.864C15.9545 212.683 16.2105 212.592 16.5412 212.592C16.8719 212.592 17.1225 212.683 17.2932 212.864C17.4745 213.035 17.5652 213.291 17.5652 213.632V220.816C17.5652 221.488 17.4425 222.059 17.1972 222.528C16.9625 222.997 16.6105 223.365 16.1412 223.632C15.6719 223.888 15.0905 224.037 14.3972 224.08L13.8532 224.112ZM22.3894 224.16C21.8241 224.16 21.3174 224.053 20.8694 223.84C20.4321 223.616 20.0854 223.317 19.8294 222.944C19.5841 222.571 19.4614 222.149 19.4614 221.68C19.4614 221.104 19.6108 220.651 19.9094 220.32C20.2081 219.979 20.6934 219.733 21.3654 219.584C22.0374 219.435 22.9388 219.36 24.0694 219.36H24.8694V220.512H24.0854C23.4241 220.512 22.8961 220.544 22.5014 220.608C22.1068 220.672 21.8241 220.784 21.6534 220.944C21.4934 221.093 21.4134 221.307 21.4134 221.584C21.4134 221.936 21.5361 222.224 21.7814 222.448C22.0268 222.672 22.3681 222.784 22.8054 222.784C23.1574 222.784 23.4668 222.704 23.7334 222.544C24.0108 222.373 24.2294 222.144 24.3894 221.856C24.5494 221.568 24.6294 221.237 24.6294 220.864V219.024C24.6294 218.491 24.5121 218.107 24.2774 217.872C24.0428 217.637 23.6481 217.52 23.0934 217.52C22.7841 217.52 22.4481 217.557 22.0854 217.632C21.7334 217.707 21.3601 217.835 20.9654 218.016C20.7628 218.112 20.5814 218.139 20.4214 218.096C20.2721 218.053 20.1548 217.968 20.0694 217.84C19.9841 217.701 19.9414 217.552 19.9414 217.392C19.9414 217.232 19.9841 217.077 20.0694 216.928C20.1548 216.768 20.2988 216.651 20.5014 216.576C20.9921 216.373 21.4614 216.229 21.9094 216.144C22.3681 216.059 22.7841 216.016 23.1574 216.016C23.9254 216.016 24.5548 216.133 25.0454 216.368C25.5468 216.603 25.9201 216.96 26.1654 217.44C26.4108 217.909 26.5334 218.517 26.5334 219.264V223.104C26.5334 223.435 26.4534 223.691 26.2934 223.872C26.1334 224.043 25.9041 224.128 25.6054 224.128C25.3068 224.128 25.0721 224.043 24.9014 223.872C24.7414 223.691 24.6614 223.435 24.6614 223.104V222.336H24.7894C24.7148 222.709 24.5654 223.035 24.3414 223.312C24.1281 223.579 23.8561 223.787 23.5254 223.936C23.1948 224.085 22.8161 224.16 22.3894 224.16ZM29.5554 224.128C29.2354 224.128 28.9901 224.043 28.8194 223.872C28.6488 223.691 28.5634 223.435 28.5634 223.104V217.056C28.5634 216.725 28.6488 216.475 28.8194 216.304C28.9901 216.133 29.2301 216.048 29.5394 216.048C29.8488 216.048 30.0888 216.133 30.2594 216.304C30.4301 216.475 30.5154 216.725 30.5154 217.056V218.144L30.3394 217.744C30.5741 217.179 30.9368 216.752 31.4274 216.464C31.9288 216.165 32.4941 216.016 33.1234 216.016C33.7528 216.016 34.2701 216.133 34.6754 216.368C35.0808 216.603 35.3848 216.96 35.5874 217.44C35.7901 217.909 35.8914 218.507 35.8914 219.232V223.104C35.8914 223.435 35.8061 223.691 35.6354 223.872C35.4648 224.043 35.2194 224.128 34.8994 224.128C34.5794 224.128 34.3288 224.043 34.1474 223.872C33.9768 223.691 33.8914 223.435 33.8914 223.104V219.328C33.8914 218.72 33.7741 218.277 33.5394 218C33.3154 217.723 32.9634 217.584 32.4834 217.584C31.8968 217.584 31.4274 217.771 31.0754 218.144C30.7341 218.507 30.5634 218.992 30.5634 219.6V223.104C30.5634 223.787 30.2274 224.128 29.5554 224.128Z" fill="#9588E8"/>
<rect x="74" y="30" width="50" height="170" fill="#B5ACEF"/>
<path d="M86.1998 224.128C85.9011 224.128 85.6718 224.043 85.5118 223.872C85.3518 223.701 85.2718 223.467 85.2718 223.168V213.552C85.2718 213.243 85.3571 213.008 85.5278 212.848C85.6985 212.677 85.9331 212.592 86.2318 212.592C86.4985 212.592 86.7065 212.645 86.8558 212.752C87.0158 212.848 87.1598 213.019 87.2878 213.264L91.2398 220.576H90.7278L94.6798 213.264C94.8078 213.019 94.9465 212.848 95.0958 212.752C95.2451 212.645 95.4531 212.592 95.7198 212.592C96.0185 212.592 96.2478 212.677 96.4078 212.848C96.5678 213.008 96.6478 213.243 96.6478 213.552V223.168C96.6478 223.467 96.5678 223.701 96.4078 223.872C96.2585 224.043 96.0291 224.128 95.7198 224.128C95.4211 224.128 95.1918 224.043 95.0318 223.872C94.8718 223.701 94.7918 223.467 94.7918 223.168V215.76H95.1438L91.7838 221.888C91.6771 222.069 91.5651 222.203 91.4478 222.288C91.3305 222.373 91.1705 222.416 90.9678 222.416C90.7651 222.416 90.5998 222.373 90.4718 222.288C90.3438 222.192 90.2318 222.059 90.1358 221.888L86.7438 215.744H87.1278V223.168C87.1278 223.467 87.0478 223.701 86.8878 223.872C86.7385 224.043 86.5091 224.128 86.1998 224.128ZM101.514 224.16C100.949 224.16 100.442 224.053 99.9944 223.84C99.5571 223.616 99.2104 223.317 98.9544 222.944C98.7091 222.571 98.5864 222.149 98.5864 221.68C98.5864 221.104 98.7358 220.651 99.0344 220.32C99.3331 219.979 99.8184 219.733 100.49 219.584C101.162 219.435 102.064 219.36 103.194 219.36H103.994V220.512H103.21C102.549 220.512 102.021 220.544 101.626 220.608C101.232 220.672 100.949 220.784 100.778 220.944C100.618 221.093 100.538 221.307 100.538 221.584C100.538 221.936 100.661 222.224 100.906 222.448C101.152 222.672 101.493 222.784 101.93 222.784C102.282 222.784 102.592 222.704 102.858 222.544C103.136 222.373 103.354 222.144 103.514 221.856C103.674 221.568 103.754 221.237 103.754 220.864V219.024C103.754 218.491 103.637 218.107 103.402 217.872C103.168 217.637 102.773 217.52 102.218 217.52C101.909 217.52 101.573 217.557 101.21 217.632C100.858 217.707 100.485 217.835 100.09 218.016C99.8878 218.112 99.7064 218.139 99.5464 218.096C99.3971 218.053 99.2798 217.968 99.1944 217.84C99.1091 217.701 99.0664 217.552 99.0664 217.392C99.0664 217.232 99.1091 217.077 99.1944 216.928C99.2798 216.768 99.4238 216.651 99.6264 216.576C100.117 216.373 100.586 216.229 101.034 216.144C101.493 216.059 101.909 216.016 102.282 216.016C103.05 216.016 103.68 216.133 104.17 216.368C104.672 216.603 105.045 216.96 105.29 217.44C105.536 217.909 105.658 218.517 105.658 219.264V223.104C105.658 223.435 105.578 223.691 105.418 223.872C105.258 224.043 105.029 224.128 104.73 224.128C104.432 224.128 104.197 224.043 104.026 223.872C103.866 223.691 103.786 223.435 103.786 223.104V222.336H103.914C103.84 222.709 103.69 223.035 103.466 223.312C103.253 223.579 102.981 223.787 102.65 223.936C102.32 224.085 101.941 224.16 101.514 224.16ZM109.594 227.008C109.36 227.008 109.168 226.944 109.018 226.816C108.869 226.699 108.778 226.539 108.746 226.336C108.725 226.133 108.762 225.92 108.858 225.696L109.946 223.28V224.112L107.034 217.376C106.938 217.141 106.906 216.923 106.938 216.72C106.97 216.517 107.066 216.357 107.226 216.24C107.397 216.112 107.626 216.048 107.914 216.048C108.16 216.048 108.357 216.107 108.506 216.224C108.656 216.331 108.789 216.539 108.906 216.848L111.066 222.24H110.586L112.794 216.832C112.912 216.533 113.05 216.331 113.21 216.224C113.37 216.107 113.584 216.048 113.85 216.048C114.085 216.048 114.272 216.112 114.41 216.24C114.549 216.357 114.634 216.517 114.666 216.72C114.698 216.912 114.661 217.125 114.554 217.36L110.666 226.24C110.528 226.539 110.378 226.741 110.218 226.848C110.058 226.955 109.85 227.008 109.594 227.008Z" fill="#9588E8"/>
<rect x="148" y="80" width="50" height="120" fill="#B5ACEF"/>
<path d="M159.43 224.128C159.174 224.128 158.966 224.069 158.806 223.952C158.657 223.835 158.566 223.68 158.534 223.488C158.502 223.285 158.539 223.061 158.646 222.816L162.87 213.456C163.009 213.147 163.174 212.928 163.366 212.8C163.569 212.661 163.798 212.592 164.054 212.592C164.299 212.592 164.518 212.661 164.71 212.8C164.913 212.928 165.083 213.147 165.222 213.456L169.462 222.816C169.579 223.061 169.622 223.285 169.59 223.488C169.558 223.691 169.467 223.851 169.318 223.968C169.169 224.075 168.971 224.128 168.726 224.128C168.427 224.128 168.193 224.059 168.022 223.92C167.862 223.771 167.718 223.547 167.59 223.248L166.55 220.832L167.414 221.392H160.662L161.526 220.832L160.502 223.248C160.363 223.557 160.219 223.781 160.07 223.92C159.921 224.059 159.707 224.128 159.43 224.128ZM164.022 214.944L161.782 220.272L161.366 219.76H166.71L166.31 220.272L164.054 214.944H164.022ZM173.864 224.16C173.214 224.16 172.675 224.043 172.248 223.808C171.822 223.563 171.502 223.2 171.288 222.72C171.086 222.24 170.984 221.643 170.984 220.928V217.056C170.984 216.715 171.07 216.464 171.24 216.304C171.411 216.133 171.656 216.048 171.976 216.048C172.296 216.048 172.542 216.133 172.712 216.304C172.894 216.464 172.984 216.715 172.984 217.056V220.96C172.984 221.515 173.096 221.925 173.32 222.192C173.544 222.459 173.902 222.592 174.392 222.592C174.926 222.592 175.363 222.411 175.704 222.048C176.046 221.675 176.216 221.184 176.216 220.576V217.056C176.216 216.715 176.302 216.464 176.472 216.304C176.643 216.133 176.888 216.048 177.208 216.048C177.528 216.048 177.774 216.133 177.944 216.304C178.126 216.464 178.216 216.715 178.216 217.056V223.104C178.216 223.787 177.891 224.128 177.24 224.128C176.931 224.128 176.691 224.043 176.52 223.872C176.35 223.691 176.264 223.435 176.264 223.104V221.888L176.488 222.368C176.264 222.944 175.923 223.387 175.464 223.696C175.016 224.005 174.483 224.16 173.864 224.16ZM183.946 227.04C183.37 227.04 182.81 226.987 182.266 226.88C181.732 226.773 181.247 226.608 180.81 226.384C180.607 226.277 180.468 226.149 180.394 226C180.33 225.851 180.308 225.696 180.33 225.536C180.362 225.387 180.426 225.253 180.522 225.136C180.628 225.019 180.756 224.939 180.906 224.896C181.055 224.853 181.21 224.875 181.37 224.96C181.839 225.195 182.282 225.344 182.698 225.408C183.124 225.483 183.487 225.52 183.786 225.52C184.5 225.52 185.034 225.344 185.386 224.992C185.748 224.651 185.93 224.139 185.93 223.456V222.016H186.074C185.914 222.56 185.578 222.997 185.066 223.328C184.564 223.648 183.994 223.808 183.354 223.808C182.65 223.808 182.036 223.648 181.514 223.328C180.991 222.997 180.586 222.539 180.298 221.952C180.01 221.365 179.866 220.683 179.866 219.904C179.866 219.317 179.946 218.789 180.106 218.32C180.276 217.84 180.511 217.429 180.81 217.088C181.119 216.747 181.487 216.485 181.914 216.304C182.351 216.112 182.831 216.016 183.354 216.016C184.015 216.016 184.591 216.181 185.082 216.512C185.583 216.832 185.908 217.259 186.058 217.792L185.898 218.192V217.056C185.898 216.725 185.983 216.475 186.154 216.304C186.335 216.133 186.58 216.048 186.89 216.048C187.21 216.048 187.455 216.133 187.626 216.304C187.796 216.475 187.882 216.725 187.882 217.056V223.216C187.882 224.485 187.546 225.44 186.874 226.08C186.202 226.72 185.226 227.04 183.946 227.04ZM183.898 222.288C184.314 222.288 184.671 222.192 184.97 222C185.268 221.808 185.498 221.536 185.658 221.184C185.828 220.821 185.914 220.395 185.914 219.904C185.914 219.168 185.732 218.592 185.37 218.176C185.007 217.749 184.516 217.536 183.898 217.536C183.482 217.536 183.124 217.632 182.826 217.824C182.527 218.016 182.292 218.288 182.122 218.64C181.962 218.992 181.882 219.413 181.882 219.904C181.882 220.64 182.063 221.221 182.426 221.648C182.788 222.075 183.279 222.288 183.898 222.288Z" fill="#9588E8"/>
<rect x="222" y="30" width="50" height="170" fill="#B5ACEF"/>
<path d="M238.44 224.16C237.971 224.16 237.502 224.123 237.032 224.048C236.563 223.984 236.12 223.883 235.704 223.744C235.288 223.595 234.915 223.413 234.584 223.2C234.392 223.072 234.259 222.917 234.184 222.736C234.11 222.555 234.083 222.379 234.104 222.208C234.136 222.027 234.206 221.872 234.312 221.744C234.43 221.605 234.574 221.52 234.744 221.488C234.915 221.456 235.102 221.504 235.304 221.632C235.774 221.909 236.27 222.112 236.792 222.24C237.315 222.368 237.864 222.432 238.44 222.432C239.283 222.432 239.896 222.293 240.28 222.016C240.664 221.728 240.856 221.36 240.856 220.912C240.856 220.539 240.718 220.245 240.44 220.032C240.174 219.819 239.71 219.643 239.048 219.504L237.288 219.136C236.275 218.923 235.518 218.565 235.016 218.064C234.526 217.552 234.28 216.88 234.28 216.048C234.28 215.525 234.387 215.051 234.6 214.624C234.814 214.197 235.112 213.829 235.496 213.52C235.891 213.211 236.355 212.976 236.888 212.816C237.432 212.645 238.03 212.56 238.68 212.56C239.32 212.56 239.928 212.64 240.504 212.8C241.08 212.96 241.598 213.195 242.056 213.504C242.227 213.621 242.339 213.765 242.392 213.936C242.456 214.107 242.472 214.277 242.44 214.448C242.408 214.608 242.334 214.747 242.216 214.864C242.099 214.981 241.95 215.051 241.768 215.072C241.598 215.093 241.4 215.04 241.176 214.912C240.782 214.688 240.382 214.528 239.976 214.432C239.571 214.336 239.134 214.288 238.664 214.288C238.174 214.288 237.752 214.357 237.4 214.496C237.048 214.635 236.776 214.832 236.584 215.088C236.403 215.333 236.312 215.627 236.312 215.968C236.312 216.352 236.44 216.661 236.696 216.896C236.952 217.12 237.39 217.296 238.008 217.424L239.752 217.792C240.808 218.016 241.592 218.368 242.104 218.848C242.627 219.328 242.888 219.968 242.888 220.768C242.888 221.28 242.782 221.744 242.568 222.16C242.366 222.576 242.067 222.933 241.672 223.232C241.288 223.531 240.824 223.76 240.28 223.92C239.736 224.08 239.123 224.16 238.44 224.16ZM248.31 224.16C247.425 224.16 246.662 223.995 246.022 223.664C245.382 223.333 244.886 222.864 244.534 222.256C244.193 221.648 244.022 220.928 244.022 220.096C244.022 219.285 244.187 218.576 244.518 217.968C244.859 217.36 245.323 216.885 245.91 216.544C246.507 216.192 247.185 216.016 247.942 216.016C248.497 216.016 248.993 216.107 249.43 216.288C249.878 216.469 250.257 216.731 250.566 217.072C250.886 217.413 251.126 217.829 251.286 218.32C251.457 218.8 251.542 219.344 251.542 219.952C251.542 220.144 251.473 220.293 251.334 220.4C251.206 220.496 251.019 220.544 250.774 220.544H245.638V219.392H250.134L249.878 219.632C249.878 219.141 249.803 218.731 249.654 218.4C249.515 218.069 249.307 217.819 249.03 217.648C248.763 217.467 248.427 217.376 248.022 217.376C247.574 217.376 247.19 217.483 246.87 217.696C246.561 217.899 246.321 218.192 246.15 218.576C245.99 218.949 245.91 219.397 245.91 219.92V220.032C245.91 220.907 246.113 221.563 246.518 222C246.934 222.427 247.542 222.64 248.342 222.64C248.619 222.64 248.929 222.608 249.27 222.544C249.622 222.469 249.953 222.347 250.262 222.176C250.486 222.048 250.683 221.995 250.854 222.016C251.025 222.027 251.158 222.085 251.254 222.192C251.361 222.299 251.425 222.432 251.446 222.592C251.467 222.741 251.435 222.896 251.35 223.056C251.275 223.216 251.142 223.355 250.95 223.472C250.577 223.707 250.145 223.883 249.654 224C249.174 224.107 248.726 224.16 248.31 224.16ZM254.118 227.008C253.798 227.008 253.553 226.923 253.382 226.752C253.211 226.581 253.126 226.331 253.126 226V217.056C253.126 216.725 253.211 216.475 253.382 216.304C253.553 216.133 253.793 216.048 254.102 216.048C254.422 216.048 254.667 216.133 254.838 216.304C255.009 216.475 255.094 216.725 255.094 217.056V218.304L254.918 217.824C255.078 217.28 255.403 216.843 255.894 216.512C256.395 216.181 256.977 216.016 257.638 216.016C258.321 216.016 258.918 216.181 259.43 216.512C259.953 216.843 260.358 217.312 260.646 217.92C260.934 218.517 261.078 219.237 261.078 220.08C261.078 220.912 260.934 221.637 260.646 222.256C260.358 222.864 259.958 223.333 259.446 223.664C258.934 223.995 258.331 224.16 257.638 224.16C256.987 224.16 256.417 224 255.926 223.68C255.435 223.349 255.105 222.923 254.934 222.4H255.126V226C255.126 226.331 255.035 226.581 254.854 226.752C254.683 226.923 254.438 227.008 254.118 227.008ZM257.078 222.64C257.473 222.64 257.819 222.544 258.118 222.352C258.417 222.16 258.646 221.877 258.806 221.504C258.977 221.12 259.062 220.645 259.062 220.08C259.062 219.227 258.881 218.592 258.518 218.176C258.155 217.749 257.675 217.536 257.078 217.536C256.683 217.536 256.337 217.632 256.038 217.824C255.739 218.005 255.505 218.288 255.334 218.672C255.174 219.045 255.094 219.515 255.094 220.08C255.094 220.923 255.275 221.563 255.638 222C256.001 222.427 256.481 222.64 257.078 222.64Z" fill="#9588E8"/>
<rect x="296" width="50" height="200" fill="#9588E8"/>
<path d="M314.647 224.16C313.559 224.16 312.605 223.92 311.783 223.44C310.973 222.96 310.343 222.288 309.895 221.424C309.447 220.549 309.223 219.525 309.223 218.352C309.223 217.467 309.351 216.672 309.607 215.968C309.863 215.253 310.226 214.645 310.695 214.144C311.175 213.632 311.746 213.243 312.407 212.976C313.079 212.699 313.826 212.56 314.647 212.56C315.746 212.56 316.701 212.8 317.511 213.28C318.322 213.749 318.951 214.416 319.399 215.28C319.847 216.144 320.071 217.163 320.071 218.336C320.071 219.221 319.943 220.021 319.687 220.736C319.431 221.451 319.063 222.064 318.583 222.576C318.114 223.088 317.543 223.483 316.871 223.76C316.21 224.027 315.469 224.16 314.647 224.16ZM314.647 222.4C315.341 222.4 315.927 222.24 316.407 221.92C316.898 221.6 317.271 221.136 317.527 220.528C317.794 219.92 317.927 219.195 317.927 218.352C317.927 217.072 317.639 216.08 317.063 215.376C316.498 214.672 315.693 214.32 314.647 214.32C313.965 214.32 313.378 214.48 312.887 214.8C312.397 215.109 312.018 215.568 311.751 216.176C311.495 216.773 311.367 217.499 311.367 218.352C311.367 219.621 311.655 220.613 312.231 221.328C312.807 222.043 313.613 222.4 314.647 222.4ZM325.578 224.16C324.757 224.16 324.042 223.995 323.434 223.664C322.826 223.323 322.357 222.843 322.026 222.224C321.695 221.605 321.53 220.88 321.53 220.048C321.53 219.419 321.621 218.859 321.802 218.368C321.994 217.867 322.266 217.445 322.618 217.104C322.97 216.752 323.397 216.485 323.898 216.304C324.399 216.112 324.959 216.016 325.578 216.016C325.93 216.016 326.309 216.064 326.714 216.16C327.13 216.256 327.519 216.416 327.882 216.64C328.053 216.747 328.165 216.875 328.218 217.024C328.271 217.173 328.282 217.328 328.25 217.488C328.218 217.637 328.149 217.771 328.042 217.888C327.946 217.995 327.823 218.064 327.674 218.096C327.525 218.117 327.359 218.08 327.178 217.984C326.943 217.845 326.703 217.744 326.458 217.68C326.213 217.605 325.978 217.568 325.754 217.568C325.402 217.568 325.093 217.627 324.826 217.744C324.559 217.851 324.33 218.011 324.138 218.224C323.957 218.427 323.818 218.683 323.722 218.992C323.626 219.301 323.578 219.659 323.578 220.064C323.578 220.853 323.765 221.477 324.138 221.936C324.522 222.384 325.061 222.608 325.754 222.608C325.978 222.608 326.207 222.576 326.442 222.512C326.687 222.448 326.933 222.347 327.178 222.208C327.359 222.112 327.519 222.08 327.658 222.112C327.807 222.144 327.93 222.219 328.026 222.336C328.122 222.443 328.181 222.576 328.202 222.736C328.223 222.885 328.202 223.035 328.138 223.184C328.085 223.333 327.978 223.456 327.818 223.552C327.466 223.765 327.093 223.92 326.698 224.016C326.303 224.112 325.93 224.16 325.578 224.16ZM333.124 224.16C332.431 224.16 331.849 224.043 331.38 223.808C330.921 223.573 330.58 223.232 330.356 222.784C330.132 222.325 330.02 221.76 330.02 221.088V217.68H329.188C328.932 217.68 328.735 217.616 328.596 217.488C328.457 217.349 328.388 217.163 328.388 216.928C328.388 216.683 328.457 216.496 328.596 216.368C328.735 216.24 328.932 216.176 329.188 216.176H330.02V214.72C330.02 214.389 330.105 214.139 330.276 213.968C330.457 213.797 330.708 213.712 331.028 213.712C331.348 213.712 331.593 213.797 331.764 213.968C331.935 214.139 332.02 214.389 332.02 214.72V216.176H333.716C333.972 216.176 334.169 216.24 334.308 216.368C334.447 216.496 334.516 216.683 334.516 216.928C334.516 217.163 334.447 217.349 334.308 217.488C334.169 217.616 333.972 217.68 333.716 217.68H332.02V220.976C332.02 221.488 332.132 221.872 332.356 222.128C332.58 222.384 332.943 222.512 333.444 222.512C333.625 222.512 333.785 222.496 333.924 222.464C334.063 222.432 334.185 222.411 334.292 222.4C334.42 222.389 334.527 222.432 334.612 222.528C334.697 222.613 334.74 222.795 334.74 223.072C334.74 223.285 334.703 223.477 334.628 223.648C334.564 223.808 334.441 223.92 334.26 223.984C334.121 224.027 333.94 224.064 333.716 224.096C333.492 224.139 333.295 224.16 333.124 224.16Z" fill="#9588E8"/>
</svg>
