<?xml version="1.0" encoding="utf-8"?>
<!-- Generator: Adobe Illustrator 27.5.0, SVG Export Plug-In . SVG Version: 6.00 Build 0)  -->
<svg version="1.1" id="_x3C_Layer_x3E_" xmlns="http://www.w3.org/2000/svg" xmlns:xlink="http://www.w3.org/1999/xlink" x="0px"
	 y="0px" viewBox="0 0 2760 1840" style="enable-background:new 0 0 2760 1840;" xml:space="preserve">
<rect style="fill:#FFFFFF;" width="2760" height="1840"/>
<g>
	<path style="fill:#EBF3FA;" d="M2578.233,1454.112c-147.615,0-2344.92,0.345-2346.163-2.168l-0.21-0.318
		c0,0-0.211-0.31-0.211-0.465c-0.821-1.257-331.317-354.267,182.479-600.012c201.033-96.154-12.581-159.629,147.28-266.672
		c183.722-123.01,399.149,52.097,588.513-42.711c573.593-287.176,1185.837-134.203,1318.406-42.616
		c26.689,18.443,169.539,109.06,94.627,277.283c-41.699,93.637-37.229,216.055,39.428,321.656
		C2743.338,1292.267,2580.307,1450.979,2578.233,1454.112z"/>
	<path style="fill:#C0D4FF;" d="M2475.934,1305.392c0,0,5.767-30.491-29.291-41.52c-35.059-11.028-697.738-12.395-709.634-5.846
		c-11.896,6.55-40.292,47.365-40.292,47.365H2475.934z"/>
	<g>
		<rect x="1696.717" y="854.644" style="fill:#AEC3FF;" width="794.697" height="127.447"/>
		<rect x="1696.717" y="1303.385" style="fill:#AEC3FF;" width="793.467" height="127.449"/>
		<rect x="1696.717" y="1357.804" style="fill:#AEC3FF;" width="30.961" height="97.513"/>
		<rect x="2460.454" y="1325.662" style="fill:#AEC3FF;" width="30.96" height="129.654"/>
		<rect x="2475.934" y="873.367" style="fill:#AEC3FF;" width="15.481" height="517.122"/>
		<rect x="2377.349" y="645.751" style="fill:#AEC3FF;" width="114.065" height="231.915"/>
	</g>
	<g>
		<rect x="1217.936" y="743.241" style="fill:#AEC3FF;" width="410.252" height="714.211"/>
		<g>
			<rect x="1420.986" y="743.241" style="fill:#0B0755;" width="4.149" height="714.211"/>
		</g>
		<path style="fill:#0B0755;" d="M1438.706,1100.444c0.69-4.741,5.095-8.025,9.836-7.333c4.742,0.69,8.024,5.095,7.334,9.836
			c-0.692,4.742-5.095,8.024-9.837,7.333C1441.298,1109.589,1438.014,1105.186,1438.706,1100.444z"/>
		<g>
			<rect x="1230.022" y="755.033" style="fill:#8C9DF4;" width="181.012" height="690.021"/>
			<rect x="1293.819" y="1094.42" style="fill:#6980E2;" width="117.215" height="12.412"/>
			<rect x="1293.819" y="832.869" style="fill:#6980E2;" width="117.215" height="6.207"/>
			<rect x="1293.819" y="1213.745" style="fill:#6980E2;" width="117.215" height="12.412"/>
			<rect x="1293.819" y="1333.069" style="fill:#6980E2;" width="117.215" height="12.413"/>
			<g>
				<path style="fill:#F99746;" d="M1397.965,1080.656h-45.581c-2.708,0-4.903,3.242-4.903,7.241l0,0
					c0,3.999,2.195,7.241,4.903,7.241h45.581c2.707,0,4.904-3.242,4.904-7.241l0,0
					C1402.869,1083.898,1400.672,1080.656,1397.965,1080.656L1397.965,1080.656z"/>
				<path style="fill:#2B478B;" d="M1397.965,1066.173h-45.581c-2.708,0-4.903,3.242-4.903,7.241l0,0
					c0,3.999,2.195,7.242,4.903,7.242h45.581c2.707,0,4.904-3.243,4.904-7.242l0,0
					C1402.869,1069.415,1400.672,1066.173,1397.965,1066.173L1397.965,1066.173z"/>
				<path style="fill:#F99746;" d="M1397.965,1051.69h-45.581c-2.708,0-4.903,3.241-4.903,7.241l0,0
					c0,3.999,2.195,7.241,4.903,7.241h45.581c2.707,0,4.904-3.242,4.904-7.241l0,0
					C1402.869,1054.932,1400.672,1051.69,1397.965,1051.69L1397.965,1051.69z"/>
			</g>
			<g>
				<path style="fill:#060633;" d="M1395.627,818.387h-67.303c-3.998,0-7.242,3.242-7.242,7.241l0,0c0,4,3.244,7.241,7.242,7.241
					h67.303c3.998,0,7.242-3.241,7.242-7.241l0,0C1402.869,821.629,1399.625,818.387,1395.627,818.387L1395.627,818.387z"/>
				<path style="fill:#3862C1;" d="M1395.627,803.904h-67.303c-3.998,0-7.242,3.242-7.242,7.241l0,0c0,4,3.244,7.241,7.242,7.241
					h67.303c3.998,0,7.242-3.241,7.242-7.241l0,0C1402.869,807.146,1399.625,803.904,1395.627,803.904L1395.627,803.904z"/>
				<path style="fill:#F99746;" d="M1395.627,789.421h-67.303c-3.998,0-7.242,3.242-7.242,7.241l0,0c0,4,3.244,7.242,7.242,7.242
					h67.303c3.998,0,7.242-3.242,7.242-7.242l0,0C1402.869,792.663,1399.625,789.421,1395.627,789.421L1395.627,789.421z"/>
			</g>
		</g>
		<g>
			<g>
				<rect x="1232.402" y="743.241" style="fill:#6980E2;" width="90.52" height="714.211"/>
				<rect x="1225.169" y="743.241" style="fill:#6980E2;" width="90.52" height="714.211"/>
			</g>
			<g>
				<rect x="1213.288" y="809.948" style="fill:#6980E2;" width="4.647" height="33.785"/>
				<rect x="1213.288" y="1111.65" style="fill:#6980E2;" width="4.647" height="33.784"/>
				<rect x="1225.169" y="743.241" style="fill:#6980E2;" width="90.52" height="714.211"/>
				<rect x="1217.936" y="743.241" style="fill:#6980E2;" width="90.521" height="714.211"/>
				<path style="fill:#233862;" d="M1305.813,1101.626c0,5.817-2.686,10.534-5.997,10.534s-5.997-4.717-5.997-10.534
					s2.686-10.533,5.997-10.533S1305.813,1095.809,1305.813,1101.626z"/>
			</g>
		</g>
	</g>
	<g>
		<g>
			<path style="fill:#C8DBF4;" d="M1432.328,641.526c0,0,16.165-18.858,0.998-30.836c0,0-11.08-6.708-20.112-6.162
				c0,0,12.8,21.464,8.659,23.599c-4.143,2.136-12.54-24.945-12.54-24.945s-25.212-2.445-33.322,1.454
				c0,0,21.553,17.638,17.014,18.688c-4.54,1.05-27.819-16.262-27.819-16.262s-23.466,3.993-22.215,18.309
				c1.252,14.313,9.337,18.734,12.891,18.353c3.554-0.381,24.342-8.316,24.795-5.404c0.453,2.912-12.061,12.428-20.823,12.873
				c0,0,16.543,18.244,27.538,12.979c10.995-5.266,11.934-13.613,18.788-16.743c6.854-3.131,12.704-3.123,9.875,0.069
				c-2.83,3.193-15.234,6.297-19.154,13.229c-3.919,6.934-7.436,11.609,3.939,9.898c11.376-1.711,29.867-10.035,30.679-19.566
				C1432.328,641.526,1432.328,641.526,1432.328,641.526z"/>
			<g>
				<path style="fill:#C8DBF4;" d="M1354.521,625.756c0,0,63.733-2.456,77.808,15.771c0,0,3.113,9.323,12.691,17.811l1.494,4.069
					c0,0-11.044-11.645-14.996-12.349C1431.518,651.059,1437.697,628.477,1354.521,625.756z"/>
				<path style="fill:#C8DBF4;" d="M1445.02,659.338c0,0,13.681,10.117,14.631,28.194l-2.482,0.222c0,0-4.369-18.691-12.267-26.001
					C1437.004,654.444,1445.02,659.338,1445.02,659.338z"/>
			</g>
		</g>
		<g>
			<path style="fill:#C8DBF4;" d="M1488.846,617.81c0,0-25.714-14.399-13.714-33.941c0,0,9.599-11.999,19.885-15.086
				c0,0-5.485,29.143,0,29.828s3.771-32.914,3.771-32.914s27.085-13.027,37.713-11.999c0,0-16.8,28.457-11.314,27.771
				c5.486-0.686,24.343-29.485,24.343-29.485s27.771-5.143,32.228,11.315c4.457,16.456-2.743,24.685-6.856,25.713
				c-4.114,1.028-30.514,0.686-29.828,4.114c0.686,3.429,18.514,8.913,28.456,5.828c0,0-10.972,27.084-25.37,25.713
				c-14.399-1.37-18.856-10.285-27.771-10.971c-8.914-0.686-15.428,1.715-10.971,4.114c4.457,2.4,19.542,0.787,26.742,6.907
				c7.199,6.121,13.028,9.892-0.343,12.636c-13.371,2.742-37.371,1.027-42.17-9.258
				C1488.846,617.81,1488.846,617.81,1488.846,617.81z"/>
			<g>
				<path style="fill:#C8DBF4;" d="M1569.07,568.441c0,0-71.997,23.313-80.225,49.369c0,0,0.342,11.656-6.856,25.027v5.143
					c0,0,7.542-17.485,11.656-19.886C1493.646,628.096,1477.531,605.468,1569.07,568.441z"/>
				<path style="fill:#C8DBF4;" d="M1481.989,642.838c0,0-11.104,16.861-4.773,37.386l2.855-0.767c0,0-2.772-22.607,3.037-33.976
					C1488.917,634.11,1481.989,642.838,1481.989,642.838z"/>
			</g>
		</g>
		<g>
			<path style="fill:#D4E4F8;" d="M1447.938,597.951c0,0,33.895-18.98,18.077-44.741c0,0-12.653-15.816-26.212-19.885
				c0,0,7.23,38.414,0,39.318c-7.231,0.903-4.971-43.386-4.971-43.386s-35.703-17.174-49.714-15.818
				c0,0,22.145,37.511,14.914,36.607c-7.231-0.904-32.087-38.866-32.087-38.866s-36.606-6.779-42.482,14.914
				c-5.875,21.692,3.615,32.539,9.038,33.895c5.424,1.356,40.224,0.903,39.319,5.424c-0.903,4.518-24.405,11.75-37.511,7.683
				c0,0,14.463,35.703,33.442,33.894c18.981-1.809,24.857-13.558,36.607-14.462c11.751-0.903,20.337,2.26,14.462,5.423
				c-5.875,3.165-25.76,1.037-35.251,9.105c-9.49,8.068-17.173,13.039,0.452,16.655s49.261,1.357,55.588-12.202
				C1447.938,597.951,1447.938,597.951,1447.938,597.951z"/>
			<g>
				<path style="fill:#D4E4F8;" d="M1342.185,532.873c0,0,94.906,30.733,105.753,65.078c0,0-0.452,15.366,9.039,32.992v6.778
					c0,0-9.943-23.049-15.366-26.212C1441.61,611.51,1462.852,581.683,1342.185,532.873z"/>
				<path style="fill:#D4E4F8;" d="M1456.977,630.943c0,0,14.636,22.225,6.291,49.28l-3.765-1.012c0,0,3.654-29.8-4.003-44.786
					C1447.843,619.438,1456.977,630.943,1456.977,630.943z"/>
			</g>
		</g>
		<path style="fill:#D4E4F8;" d="M1449.079,738.893c-36.669,0-66.395-29.726-66.395-66.395h132.79
			C1515.475,709.167,1485.748,738.893,1449.079,738.893z"/>
		<path style="fill:#D4E4F8;" d="M1381.768,742.271h134.624l0,0c0-4.524-3.667-8.191-8.191-8.191h-118.241
			C1385.435,734.08,1381.768,737.747,1381.768,742.271L1381.768,742.271z"/>
		
			<rect x="1381.174" y="672.498" transform="matrix(-1 -1.224647e-16 1.224647e-16 -1 2898.832 1347.0322)" style="fill:#9FC1F4;" width="136.484" height="2.036"/>
	</g>
	<g>
		<path style="fill:#C0D8FB;" d="M811.681,944.318h-84.096c-3.861,0-7.021-3.159-7.021-7.02v-81.167c0-3.861,3.159-7.02,7.021-7.02
			h84.096c3.859,0,7.018,3.159,7.018,7.02v81.167C818.699,941.159,815.54,944.318,811.681,944.318z"/>
		<path style="fill:#DFEBFD;" d="M808.037,940.193h-76.81c-3.525,0-6.411-2.885-6.411-6.411v-74.135c0-3.526,2.886-6.41,6.411-6.41
			h76.81c3.527,0,6.411,2.884,6.411,6.41v74.135C814.448,937.309,811.564,940.193,808.037,940.193z"/>
		<g>
			<g>
				<path style="fill:#B7D3F3;" d="M767.6,861.925c0-1.122,0.91-2.032,2.032-2.032c1.123,0,2.033,0.91,2.033,2.032
					c0,1.123-0.91,2.034-2.033,2.034C768.51,863.959,767.6,863.048,767.6,861.925z"/>
				<path style="fill:#B7D3F3;" d="M784.003,864.798c0.545-0.981,1.783-1.334,2.765-0.788c0.98,0.545,1.335,1.782,0.788,2.764
					c-0.544,0.982-1.782,1.335-2.764,0.79C783.811,867.018,783.457,865.78,784.003,864.798z"/>
				<path style="fill:#B7D3F3;" d="M798.055,875.964c0.943-0.609,2.202-0.338,2.81,0.605c0.609,0.943,0.338,2.201-0.605,2.811
					c-0.943,0.609-2.202,0.338-2.811-0.605C796.841,877.83,797.111,876.572,798.055,875.964z"/>
				<path style="fill:#B7D3F3;" d="M805.017,893.244c1.123,0,2.032,0.909,2.032,2.032c0,1.123-0.909,2.032-2.032,2.032
					c-1.123,0-2.032-0.909-2.032-2.032C802.984,894.153,803.894,893.244,805.017,893.244z"/>
				<path style="fill:#B7D3F3;" d="M801.462,913.298c0.794,0.794,0.794,2.081,0,2.875c-0.794,0.794-2.081,0.794-2.875,0
					c-0.793-0.794-0.793-2.081,0-2.875C799.381,912.504,800.668,912.504,801.462,913.298z"/>
				<path style="fill:#B7D3F3;" d="M788.697,926.096c0.794,0.795,0.794,2.082,0,2.875c-0.795,0.795-2.081,0.795-2.875,0
					c-0.795-0.793-0.795-2.08,0-2.875C786.616,925.303,787.902,925.303,788.697,926.096z"/>
				<path style="fill:#B7D3F3;" d="M767.6,932.693c0-1.123,0.91-2.033,2.032-2.033c1.123,0,2.033,0.91,2.033,2.033
					c0,1.122-0.91,2.032-2.033,2.032C768.51,934.726,767.6,933.815,767.6,932.693z"/>
			</g>
			<g>
				<path style="fill:#B7D3F3;" d="M755.198,864.798c-0.546-0.981-1.783-1.334-2.765-0.788c-0.982,0.545-1.334,1.782-0.79,2.764
					c0.546,0.982,1.783,1.335,2.765,0.79C755.39,867.018,755.743,865.78,755.198,864.798z"/>
				<path style="fill:#B7D3F3;" d="M741.144,875.964c-0.943-0.609-2.201-0.338-2.81,0.605c-0.608,0.943-0.337,2.201,0.607,2.811
					c0.943,0.609,2.201,0.338,2.81-0.605C742.359,877.83,742.088,876.572,741.144,875.964z"/>
				<path style="fill:#B7D3F3;" d="M734.185,893.244c-1.123,0-2.033,0.909-2.033,2.032c0,1.123,0.91,2.032,2.033,2.032
					c1.122,0,2.033-0.909,2.033-2.032C736.218,894.153,735.307,893.244,734.185,893.244z"/>
				<path style="fill:#B7D3F3;" d="M737.738,913.298c-0.794,0.794-0.794,2.081,0,2.875c0.794,0.794,2.081,0.794,2.874,0
					c0.795-0.794,0.795-2.081,0-2.875C739.819,912.504,738.532,912.504,737.738,913.298z"/>
				<path style="fill:#B7D3F3;" d="M750.504,926.096c-0.795,0.795-0.795,2.082,0,2.875c0.793,0.795,2.08,0.795,2.874,0
					c0.794-0.793,0.794-2.08,0-2.875C752.584,925.303,751.297,925.303,750.504,926.096z"/>
			</g>
		</g>
		<g>
			<path style="fill:#B7D3F3;" d="M769.084,895.276c0-1.123,0.911-2.032,2.033-2.032c1.122,0,2.033,0.909,2.033,2.032
				c0,1.123-0.911,2.032-2.033,2.032C769.995,897.309,769.084,896.399,769.084,895.276z"/>
			<g>
				<rect x="770.84" y="869.882" style="fill:#B7D3F3;" width="0.555" height="25.395"/>
			</g>
			<g>
				
					<rect x="769.035" y="889.124" transform="matrix(0.7868 -0.6172 0.6172 0.7868 -383.5135 669.7195)" style="fill:#B7D3F3;" width="17.116" height="1.664"/>
			</g>
		</g>
	</g>
	<g>
		<path style="fill:#2A539B;" d="M1884.502,933.416c-10.618-3.525-17.968,0.925-17.968,0.925
			c-30.571,1.256-31.706,32.591-28.117,44.253c5.04,16.378-12.795,29.293,6.984,35.921c22.95,7.69,42.208-4.452,40.894-0.491
			C1958.871,1019.742,1908.65,941.435,1884.502,933.416z"/>
		<path style="fill:#2B478B;" d="M1852.794,1085.823c0,0-2.905,5.752-8.173,12.361c-6.352,7.954-39.683-10.926-36.812-12.361
			c2.872-1.437,19.103-47.512,25.976-55.68c6.364-7.565,15.215-9.284,15.215-9.284L1852.794,1085.823z"/>
		<path style="fill:#4075C1;" d="M1965.274,1411.267c0,0,9.2,8.396,7.405,14.36c-1.795,5.966-10.097,9.943-11.219,17.233
			c-1.123,7.292-5.61,11.268-9.648,11.268c-4.039,0-19.256,0-19.256,0s-2.973-5.13,4.208-6.677
			c7.179-1.546,9.888-10.113,9.438-18.067s0.674-18.56,0.674-18.56l15.257-3.535L1965.274,1411.267z"/>
		<path style="fill:#4075C1;" d="M1887.41,1414.831c0,0,3.31,35.566-0.729,37.556l-51.688-0.106c0,0,0-5.966,8.303-7.291
			c8.302-1.326,22.887-6.187,25.354-17.013S1887.41,1414.831,1887.41,1414.831z"/>
		<path style="fill:#2B478B;" d="M1927.171,1061.834c0,0,0.771,10.859,0,23.89c-0.512,8.638-9.249,20.208-10.489,23.07
			c-3.11,7.179-6.619,8.346-6.619,8.346l-27.139,6.652l-9.542,2.335l-30.092-8.987c0,0-13.706-38.256-8.202-59.791
			c5.503-21.534,13.912-36.489,13.912-36.489s20.449-4.598,56.526-2.039L1927.171,1061.834z"/>
		<path style="fill:#163560;" d="M1929.756,1086.025c-0.512,8.639-11.834,19.906-13.074,22.769c-3.11,7.179-6.619,8.346-6.619,8.346
			l-27.139,6.652l-7.239-10.21c0,0,43.934-12.218,35.614-50.952L1929.756,1086.025z"/>
		<path style="fill:#ED7D2B;" d="M1845.204,1122.946c0,0-14.901,46.385-15.859,62.177c-0.957,15.793,28.486,224.346,29.671,231.622
			c1.116,6.858,9.634,11.231,9.634,11.231s3.918,2.311,9.508,0.732c7.758-2.19,10.209-4.813,10.209-4.813
			s11.6-148.737,4.422-201.869s-7.263-99.08-7.263-99.08H1845.204z"/>
		<path style="fill:#F99746;" d="M1908.341,1121.563c0,0,22.731,30.5,24.851,51.117c2.119,20.618,3.325,93.04,7.84,113.139
			s21.103,58.779,21.103,121.47c0,0-1.724,3.594-7.048,5.508c-1.703,0.612-3.983,1.205-6.199,1.714
			c-4.39,1.007-8.895-1.14-10.897-5.174c-11.216-22.58-46.938-95.404-48.77-110.521c-1.296-10.698-12.575-81.502-37.179-123.048
			c-5.907-9.975,3.625-49.641,3.625-49.641L1908.341,1121.563z"/>
		<path style="fill:#163560;" d="M1842.824,1115.786c0,0,5.982,4.732,17.866,4.972c14.196,0.285,49.372-3.619,49.372-3.619
			s1.562,4.366,1.498,8.979c0,0-42.961,10.836-67.852,1.582C1843.709,1127.699,1840.498,1121.659,1842.824,1115.786z"/>
		<g>
			<path style="fill:#FFFFFF;" d="M1857.285,1132.991c-3.572,0-6.478-3.289-6.478-7.332s2.905-7.331,6.478-7.331
				c3.571,0,6.477,3.288,6.477,7.331S1860.856,1132.991,1857.285,1132.991z M1857.285,1120.476c-2.389,0-4.331,2.325-4.331,5.184
				c0,2.859,1.942,5.185,4.331,5.185c2.387,0,4.33-2.325,4.33-5.185C1861.615,1122.801,1859.672,1120.476,1857.285,1120.476z"/>
		</g>
		<polygon style="fill:#D35B31;" points="1888.321,1146.327 1823.752,1146.931 1791.978,1072.26 1856.548,1071.656 		"/>
		<path style="fill:#FFB27D;" d="M1879.877,1112.584l-4.732-5.816c0,0-3.203-2.857-5.527-3.343s-7.232-3.316-7.709-2.519
			c-0.475,0.797,3.771,6.487,3.771,6.487l0.215,0.03c-4.875,3.667-17.183,0.43-18.701,1.926c-1.842,1.813,2.534,5.731,4.882,7.933
			c2.348,2.2,9.062,5.87,14.296,4.241c3.825-1.191,9.848-2.403,9.848-2.403L1879.877,1112.584z"/>
		<path style="fill:#FFB27D;" d="M1796.835,1085.396c0,0,4.058-4.611,6.64-2.398c2.582,2.214-0.676,13.096-3.135,11.99
			C1797.881,1093.88,1795.42,1086.748,1796.835,1085.396z"/>
		<path style="fill:#2B478B;" d="M1905.526,1018.82c0,0,21.53,1.51,29.784,21.573s23.426,53.085,20.164,66.922
			c-1.301,5.517-16.986,24.619-82.403,12.481c0,0,0.534-6.843,4.953-10.05c0,0,46.092-14.798,46.013-17.742
			c-0.149-5.568-6.229-10.38-31.976-36.134C1885.063,1048.869,1905.526,1018.82,1905.526,1018.82z"/>
		<path style="fill:#FFB27D;" d="M1891.301,1019.798c0.635-0.853-0.182-3.568-1.196-8.625c-0.921-4.581-2.481-11.667-2.448-19.638
			l-1.361,0.228l-22.909,3.855c0,0,0.521,6.125,0.536,11.895c0,0.048,0,0.096,0.001,0.144c0.027,5.011-1.353,12.585,0.337,13.575
			C1872.941,1026.319,1888.857,1023.078,1891.301,1019.798z"/>
		<path style="fill:#E8945B;" d="M1863.386,995.618c0,0,0.455,8.637,0.471,14.407c12.819-0.308,19.662-12.754,22.438-18.262
			L1863.386,995.618z"/>
		<path style="fill:#FFB27D;" d="M1862.002,1005.918c0,0,30.033-4.277,27.082-22.939c-2.953-18.661-1.064-31.782-20.364-29.841
			c-19.3,1.942-21.89,9.651-22.42,16.12C1845.77,975.727,1854.113,1006.55,1862.002,1005.918z"/>
		<path style="fill:#2A539B;" d="M1855.005,954.856c0,0,11.688,20.584,24.79,21.815c13.102,1.231,18.025-3.011,18.025-3.011
			s-10.877-6.131-15.014-19.199C1882.807,954.461,1859.531,943.451,1855.005,954.856z"/>
		<path style="fill:#2A539B;" d="M1857.32,956.309c0,0-5.72,3.242-7.517,8.077c-1.757,4.727-2.926,10.804-1.319,17.773
			c0,0-8.549-13.894-2.946-23.417C1851.479,948.644,1857.32,956.309,1857.32,956.309z"/>
	</g>
	<g>
		<g>
			
				<rect x="663.265" y="1102.068" transform="matrix(0.9874 -0.1585 0.1585 0.9874 -169.4912 119.5589)" style="fill:#B5453C;" width="3.495" height="41.195"/>
			<polygon style="fill:#EFCBAB;" points="660.597,1095.168 660.021,1102.605 663.473,1102.051 			"/>
		</g>
		<g>
			
				<rect x="693.631" y="1105.459" transform="matrix(0.9832 0.1827 -0.1827 0.9832 217.4626 -108.1036)" style="fill:#B5453C;" width="3.496" height="41.194"/>
			<polygon style="fill:#EFCBAB;" points="700.467,1098.675 697.423,1105.486 700.86,1106.125 			"/>
		</g>
		<g>
			
				<rect x="689.275" y="1093.58" transform="matrix(0.9832 0.1825 -0.1825 0.9832 214.9478 -107.402)" style="fill:#B5453C;" width="3.495" height="41.194"/>
			<polygon style="fill:#EFCBAB;" points="696.109,1086.795 693.066,1093.607 696.503,1094.245 			"/>
		</g>
		<g>
			<rect x="672.96" y="1119.224" style="fill:#ED7D2B;" width="27.53" height="39.677"/>
			<rect x="659.195" y="1119.224" style="fill:#F99746;" width="27.53" height="39.677"/>
		</g>
	</g>
	<g>
		<g>
			<path style="fill:#FF9E55;" d="M2223.297,794.073c0,0,16.001-55.076,65.573-85.56c0,0,76.442,1.901,123.436,38.238
				c0,0-62.224,82.922-56.195,135.405C2356.11,882.156,2253.499,858.773,2223.297,794.073z"/>
			<path style="fill:#ED823A;" d="M2412.306,746.751c0,0,0.097,53.115-17.017,88.285c-17.113,35.17-39.179,47.12-39.179,47.12
				C2356.238,881.82,2352.034,786.133,2412.306,746.751z"/>
		</g>
		<g>
			<path style="fill:#8C9DF4;" d="M2214.107,746.307c0,0,2.334-68.037,19.641-97.513c17.306-29.475,71.341,35.849,71.341,35.849
				l-60.784,49.599L2214.107,746.307z"/>
			<path style="fill:#F9DDBF;" d="M1842.965,840.089c0,0-45.766-2.131-51.982-6c-6.218-3.87-20.119-6.256-24.965-11.12
				c-4.846-4.864-11.45-10-14.145-5.181c-3.431,6.139,5.932,24.49,10.275,27.408c4.344,2.917,18.104,8.931,24.313,15.685
				c6.211,6.754,13.588,5.63,18.483,0.87c4.896-4.76,47.496-12.48,47.496-12.48L1842.965,840.089z"/>
			<path style="fill:#233862;" d="M2117.143,808.829c-5.024-5.344-93.293-50.126-128.058-49.384
				c-38.319,0.818-148.496,71.811-148.496,71.811l43.189-2.099c0,0,98.731-22.759,108.021-19.367
				c28.511,10.408,109.294,82.454,153.105,70.026c47.503-13.474,49.566-46.848,49.566-46.848L2117.143,808.829z"/>
			<path style="fill:#8C9DF4;" d="M2265.698,848.827c-1.11,1.317-2.249,2.602-3.427,3.854c-5.846,6.223-12.492,11.624-19.528,16.311
				c-36.551,24.339-83.608,29.332-83.608,29.332c-54.313-21.848-46.688-105.065-46.688-105.065
				c73.02-0.825,129.022-84.746,129.022-84.746s43.735,22.698,64.401,53.777c11.058,16.628,7.59,59.169,5.713,68.489
				C2308.065,848.276,2289.917,820.003,2265.698,848.827z"/>
			<path style="fill:#FFB27D;" d="M2290.265,725.275c-1.801,5.227-2.789,9.999-3.255,14.224c-0.745,6.752-5.748,12.24-12.373,13.739
				c-5.941,1.344-10.401,1.27-13.676,0.64c-4.598-0.885-7.614-5.317-6.719-9.914c0.429-2.193,0.833-4.212,0.938-4.554
				c0.201-0.651,0.388-1.277,0.565-1.877c2.058-6.808,3.027-10.641,3.027-10.641s0.012,0.003,0.029,0.008
				c0.771-0.06,18.182-1.464,26.763-1.775C2288.449,725.019,2290.342,725.041,2290.265,725.275z"/>
			<path style="fill:#ED975D;" d="M2257.795,730.521c11.682,5.236,24.811,1.136,24.811,1.136c-1.139-1.258,4.291-5.651,2.961-6.534
				c-8.584,0.314-24.037-0.217-24.809-0.154c-0.018-0.003-2.209,1.518-2.209,1.518S2258.187,728.126,2257.795,730.521z"/>
			<g>
				<path style="fill:#FFB27D;" d="M2253.93,724.916c0,0,4.675,2.806,10.919,4.942c9.131,3.13,21.616,4.833,27.747-5.749
					c10.322-17.811,20.937-27.612,3.276-39.228c-9.454-6.219-15.989-7.748-20.774-7.041c-4.156,0.604-6.991,2.898-9.265,5.273
					C2260.941,688.221,2246.824,720.027,2253.93,724.916z"/>
				<path style="fill:#233862;" d="M2266.537,670.793c-6.783,6.318-2.601,17.68,6.662,17.997c3.621,0.124,6.571,0.257,8.058,1.306
					c4.356,3.072,3.623,11.257,3.204,13.817c-0.42,2.565-0.512,4.78,6.279,4.544c1.113-0.037,1.863,0.189,2.328,0.609
					c2.117,1.899-1.607,7.713-3.412,9.993c-0.494,0.627-0.872,1.336-1.113,2.096c-0.567,1.796-1.134,4.913,0.736,7.174
					c0.337,0.401,6.281,4.539,26.73-16.348c3.214-3.279,7.254-11.299,5.069-20.227c-2.18-8.927-17.264-21.363-30.921-25.895
					C2275.553,661.012,2267.391,669.999,2266.537,670.793z"/>
			</g>
			<path style="fill:#2B478B;" d="M2113.894,823.726c0,0-90.788-21.339-141.192-20.789c-34.365,0.374-119.536,22.188-162.074,32.707
				c0,0-1.116,5.1,0.612,13.273c2.094,9.893,9.542,10.999,9.542,10.999s90.936-3.957,131.658-3.91
				c40.723,0.047,104.221,51.975,214.748,24.899L2113.894,823.726z"/>
			<path style="fill:#FFB27D;" d="M2218.609,805.358c0,0-16.93-4.071-23.348-2.065c-6.416,2.005-15.706,11.429-14.283,11.881
				c13.03,4.137,15.348-2.645,19.711-1.284c4.363,1.361,7.269,1.846,12.851,0.057c5.582-1.789,11.216,0.097,11.216,0.097
				l3.261-6.157L2218.609,805.358z"/>
			<path style="fill:#FFB27D;" d="M2194.681,803.492c0,0-11.396,1.185-11.043,2.278c0.354,1.095,6.65,1.64,6.65,1.64
				L2194.681,803.492z"/>
			<path style="fill:#6980E2;" d="M2262.271,852.682c-5.846,6.223-12.492,11.624-19.528,16.311
				c-18.524-13.667-29.14-47.784-29.314-48.357L2262.271,852.682z"/>
			<path style="fill:#8C9DF4;" d="M2312.154,785.322c0,0,8.151,63.123-19.369,87.061c-27.521,23.939-79.36-51.754-79.36-51.754
				s-6.001-6.764,11.421-15.443l48.217,21.044C2280.389,824.315,2275.15,794.803,2312.154,785.322z"/>
			<path style="fill:#6980E2;" d="M2236.707,810.363c0,0,26.939,17.029,34.737,13.14c7.798-3.889,2.345-23.486,2.345-23.486
				S2275.557,826.173,2236.707,810.363z"/>
			<path style="fill:#8C9DF4;" d="M2159.135,898.324c0,0-48.865-16.007-58.57-86.84c0,0,23.668,7.695,51.023,7.935l45.344,38.089
				L2159.135,898.324z"/>
			<g>
				<path style="fill:#ED823A;" d="M2151.588,819.419l58.398,5.83l0.051-0.511c0.283-2.826-1.78-5.346-4.606-5.628l-53.281-5.319
					L2151.588,819.419z"/>
				<polygon style="fill:#ED823A;" points="2159.431,742.547 2069.143,733.535 2083.123,812.585 2173.998,821.656 				"/>
				<polygon style="fill:#FF9E55;" points="2067.813,733.4 2081.794,812.451 2172.669,821.523 2158.101,742.413 				"/>
				<path style="fill:#FFFFFF;" d="M2112.725,775.994c0.268,2.994,2.454,5.618,4.885,5.86c2.43,0.242,4.183-1.988,3.915-4.982
					c-0.268-2.994-2.455-5.618-4.885-5.861C2114.209,770.769,2112.457,773,2112.725,775.994z"/>
			</g>
		</g>
	</g>
	<g>
		<polygon style="fill:#FFB27D;" points="1664.119,1380.387 1659.698,1398.989 1653.828,1423.661 1635.49,1423.661 
			1634.398,1400.027 1633.555,1381.798 		"/>
		<path style="fill:#BC3F3F;" d="M1722.229,975.449c0,0,14.509-15.525,23.944-3.352c9.435,12.175,19.891,20.393,34.367,29.756
			c14.477,9.363-12.793,82.757-30.928,81.248C1731.479,1081.592,1657.484,1023.731,1722.229,975.449z"/>
		<path style="fill:#ED7D2B;" d="M1649.979,968.067c3.622-2.708,36.972-14.157,69.485-2.896
			c32.515,11.26-25.185,42.627-25.185,42.627l-18.7,0.804L1649.979,968.067z"/>
		<path style="fill:#233862;" d="M1628.239,1450.764c0,0,0-8.978,1.279-11.963s5.97-15.14,5.97-15.14h18.34
			c0,0,3.412,11.088,3.625,14.713s0,12.39,0,12.39H1628.239z"/>
		<path style="fill:#233862;" d="M1744.675,1450.764c0,0,0-8.978-1.278-11.963c-1.28-2.985-5.971-15.14-5.971-15.14h-18.339
			c0,0-3.412,11.088-3.625,14.713c-0.214,3.625,0,12.39,0,12.39H1744.675z"/>
		<path style="fill:#FFB27D;" d="M1671.207,946.861c0,0-0.646,19.991-3.206,28.947l-20.25,43.652l76.232-18.117l-18.181-25.119
			c0,0-5.489-26.805-2.61-36.721C1706.07,929.589,1671.207,946.861,1671.207,946.861z"/>
		<path style="fill:#ED985F;" d="M1671.096,949.621c0.001-0.005,6.028,14.512,17.383,14.193c11.355-0.321,13.939-13.16,13.939-13.16
			L1671.096,949.621z"/>
		<path style="fill:#2C3A64;" d="M1664.317,937.873c0,0-3.666-18.306-6.225-23.85c-2.56-5.544-4.692-30.28,23.669-31.56
			c0,0,10.875,1.279,16.846-2.345c0,0,0,3.624-1.493,4.904c0,0,9.81-2.346,17.486,6.184s-5.116,38.383-4.477,45.42L1664.317,937.873
			z"/>
		<path style="fill:#FFB27D;" d="M1687.178,958.206c-8.229-0.145-23.371-11.101-23.371-24.667v-21.17
			c0-4.955,3.454-9.008,7.677-9.008h31.389c4.222,0,7.677,4.053,7.677,9.008v19.972
			C1710.549,946.566,1696.614,958.372,1687.178,958.206z"/>
		<path style="fill:#2C3A64;" d="M1663.807,923.672c0,0,0.043-12.721,10.119-14.677c10.075-1.956,32.625,6.2,35.823-3.075
			c3.198-9.275-43.587-9.116-45.942-3.198C1661.451,908.639,1663.807,923.672,1663.807,923.672z"/>
		<path style="fill:#2B478B;" d="M1698.938,1144.122c5.046-15.709,4.945,65.025-15.314,155.836
			c-3.091,13.86-10.016,47.281-14.985,79.626h-41.508c-0.573-26.119-3.373-62.58-5.137-89.89
			c-5.529-85.603,8.545-149.843,8.545-149.843L1698.938,1144.122z"/>
		<path style="fill:#2B478B;" d="M1752.202,1289.691c-0.459,26.175-5.773,60.944-6.256,86.43h-42.11
			c-2.83-18.5-7.323-37.55-10.551-52.92c-2.298-10.913-3.957-19.967-3.934-25.655c0.049-11.117-6.985-43.173-11.171-71.439
			c-0.007-0.043-0.013-0.079-0.018-0.114c-0.164-1.087-0.32-2.172-0.472-3.246c-5.609-39.734-3.631-78.624-3.631-78.624
			l71.054-4.439C1745.114,1139.683,1753.42,1219.887,1752.202,1289.691z"/>
		<path style="fill:#233862;" d="M1624.909,1172.775c0,0,15.986,19.369,59.418,16.573s64.152-10.354,64.152-10.354
			L1624.909,1172.775z"/>
		<path style="fill:#F99746;" d="M1748.479,1178.994c-14.188,1.931-110.702,6.943-123.57-6.219
			c-12.866-13.168,21.005-192.76,21.005-192.76s3.836-1.109,10.309-2.328c3.3-0.621,7.281-1.267,11.788-1.81
			c0.054,1.4,1.169,22.574,18.747,31.32c0,0,21.113-8.457,19.045-30.976c-0.024-0.265-0.056-0.519-0.092-0.772
			c2.817,0.302,5.671,0.694,8.537,1.188c5.79,0.995,11.653,2.401,17.469,4.325C1731.717,980.963,1762.668,1177.07,1748.479,1178.994
			z"/>
		<path style="fill:#F99746;" d="M1625.723,1086.275c-0.57,0.747,3.276,6.273,8.706,13.38c11.167,14.596,29.03,35.839,29.03,35.839
			c-0.239,7.201-1.245,11.847-1.245,11.847c-24.538-11.596-41.129-22.44-52.127-31.149c-15.462-12.251-19.896-20.286-19.896-20.286
			c24.793-104.877,56.602-115.797,56.602-115.797l10.379,63.197C1657.172,1043.306,1627.461,1084.002,1625.723,1086.275z"/>
		<path style="fill:#FFFFFF;" d="M1714.248,976.638l-6.396,19.448l-8.522,12.516l-12.234,6.637l-11.516-6.637l-19.357-30.914
			c3.3-0.621,7.281-1.267,11.788-1.81c0.024,0.661,0.286,3.826,2.397,7.903c6.987,13.495,26.716,13.614,33.621,0.077
			c1.185-2.321,1.881-4.876,1.773-7.636c-0.012-0.267-0.056-0.519-0.092-0.772C1708.528,975.751,1711.382,976.144,1714.248,976.638z
			"/>
		<path style="fill:#FFB27D;" d="M1663.462,1135.496c-0.006,0.205-0.012,0.404-0.024,0.604c-0.054,1.327-0.133,2.569-0.229,3.697
			c-0.615,0.851-1.296,1.653-2.038,2.401c-1.129,1.14-2.347,2.1-3.59,2.907c-0.621-0.296-1.242-0.604-1.852-0.905
			c-21.016-10.405-35.639-20.087-45.64-28.007c6.346-1.955,15.237-6.418,24.34-16.541
			C1645.595,1114.251,1663.462,1135.496,1663.462,1135.496z"/>
		<path style="fill:#F99746;" d="M1785.323,1092.049c0,0-4.279,8.12-19.504,20.664c-10.829,8.918-27.21,20.077-51.521,32.141
			c0,0-1.095-4.626-1.472-11.82c0,0,17.453-21.581,28.34-36.388c5.291-7.209,9.032-12.809,8.447-13.544
			c-1.383-1.738-20.006-26.234-28.316-37.159c-2.41-3.175-3.948-5.2-3.948-5.2l10.519-62.135
			C1727.867,978.607,1758.528,987.667,1785.323,1092.049z"/>
		<path style="fill:#FFB27D;" d="M1765.816,1112.713c-9.881,8.131-24.382,18.133-45.308,28.991c-0.52,0.265-1.044,0.536-1.575,0.808
			c-2.672-3.228-4.294-7.07-5.283-10.496c0.35-0.435,0.802-1.008,1.356-1.688c5.013-6.256,17.608-22.061,26.156-33.685
			C1750.453,1106.59,1759.435,1110.879,1765.816,1112.713z"/>
		<path style="fill:#FFB27D;" d="M1705.711,975.449c-14.079-1.508-27.289-0.819-37.7,0.428c-0.007-0.047-0.007-0.071-0.007-0.071
			S1702.9,954.223,1705.711,975.449z"/>
		<g>
			<g>
				<polygon style="fill:#ED7D2B;" points="1670.714,1036.489 1669.997,1036.489 1669.47,1002.852 1671.279,1002.852 				"/>
			</g>
			<path style="fill:#ED7D2B;" d="M1669.924,1035.615c-0.651,0.983-2.117,4.236-1.145,4.58c0.973,0.343,2.681,0.363,3.14-0.095
				C1672.377,1039.643,1671.156,1033.759,1669.924,1035.615z"/>
		</g>
		<g>
			<g>
				<polygon style="fill:#ED7D2B;" points="1703.746,1036.489 1703.03,1036.489 1702.503,1002.852 1704.313,1002.852 				"/>
			</g>
			<path style="fill:#ED7D2B;" d="M1702.958,1035.615c-0.652,0.983-2.118,4.236-1.145,4.58c0.973,0.343,2.681,0.363,3.139-0.095
				S1704.19,1033.759,1702.958,1035.615z"/>
		</g>
		<path style="fill:#ED7D2B;" d="M1675.58,1008.602l-29.664-28.586c0,0-6.679-4.741,3.877-11.829
			C1660.35,961.1,1675.58,1008.602,1675.58,1008.602z"/>
		<path style="fill:#ED7D2B;" d="M1699.328,1008.602l29.664-28.586c0,0,6.68-4.741-3.876-11.829
			C1714.56,961.1,1699.328,1008.602,1699.328,1008.602z"/>
		<g>
			<path style="fill:#ED7D2B;" d="M1736.561,1147.771c-5.779,0.489-10.6-0.959-14.32-4.282c-0.628-0.561-1.201-1.158-1.731-1.785
				c-2.932-3.427-4.578-7.74-5.502-11.377c-1.062-4.156-1.176-7.426-1.176-7.492l-0.024-0.839h-47.914l0.03,0.893
				c0.188,5.151-0.646,9.574-2.485,13.211c-0.911,1.822-2.074,3.444-3.486,4.867c-1.304,1.315-2.744,2.378-4.223,3.233
				c-6.412,3.716-13.548,3.571-13.639,3.571l-0.887-0.03v20.245h96.292v-20.293L1736.561,1147.771z"/>
		</g>
		<path style="fill:#ED7D2B;" d="M1749.613,1083.102c0,0-26.709-35.047-5.567-45.25c8.394-4.051,20.209,44.042,13.875,48.566
			s-16.758,10.225-16.758,10.225L1749.613,1083.102z"/>
		<path style="fill:#ED7D2B;" d="M1628.798,1077.323c0,0,9.28-44.003,1.137-39.472c-8.144,4.532-20.208,44.042-13.874,48.566
			s16.758,10.225,16.758,10.225L1628.798,1077.323z"/>
		<g>
			<path style="fill:#BC3F3F;" d="M1745.868,1082.999c-12.197-15.141-16.753-39.728-16.131-65.099
				c0.468-19.05,3.079-36.242,3.25-36.846l10.003,7.793c-0.039,0.142-5.742,10.566-6.183,29.104
				c-0.403,16.953-1.207,29.859,8.376,59.371L1745.868,1082.999z"/>
		</g>
		<path style="fill:#233862;" d="M1653.262,1388.945l-21.49-0.012c-1.902,0.215-4.879-2.57-4.879-6.553
			c0,0-0.045-9.545-0.676-11.242c-2.765-7.439,1.348-7.842,5.328-7.842h39.209c3.982,0-2.116,12.307-2.116,16.287l1.412,5.219
			C1670.05,1388.784,1657.242,1388.945,1653.262,1388.945z"/>
		<path style="fill:#FFFFFF;" d="M1659.698,1398.989l-5.87,24.672h-18.338l-1.092-23.634
			C1637.131,1401.029,1646.33,1403.592,1659.698,1398.989z"/>
		<polygon style="fill:#FFB27D;" points="1708.83,1380.387 1713.252,1398.989 1719.121,1423.661 1737.46,1423.661 
			1738.551,1400.027 1739.396,1381.798 		"/>
		<path style="fill:#233862;" d="M1719.688,1388.945l21.489-0.012c1.902,0.215,4.88-2.57,4.88-6.553c0,0,0.045-9.545,0.676-11.242
			c2.765-7.439-1.348-7.842-5.329-7.842h-39.209c-3.981,0,2.117,12.307,2.117,16.287l-1.412,5.219
			C1702.9,1388.784,1715.707,1388.945,1719.688,1388.945z"/>
		<path style="fill:#FFFFFF;" d="M1713.252,1398.989l5.869,24.672h18.339l1.091-23.634
			C1735.818,1401.029,1726.619,1403.592,1713.252,1398.989z"/>
		<path style="fill:#FFFFFF;" d="M1679.364,943.438c0,0,2.845,3.849,7.813,3.712c4.969-0.138,7.305-3.712,7.305-3.712
			S1686.099,942.065,1679.364,943.438z"/>
	</g>
	<g>
		<g>
			<path style="fill:#FFB27D;" d="M503.412,1051.717c0,0-0.922,43.608,1.217,56.332c2.139,12.725-2.801,71.908-2.801,71.908
				l-10.21-1.282c0,0-25.561-96.673-22.95-109.08C471.279,1057.186,503.412,1051.717,503.412,1051.717z"/>
			<g>
				<path style="fill:#FFB27D;" d="M501.828,1179.957c0,0,3.941,13.237,3.001,15.768s-5.964,7.816-10.103,11.032
					c-4.141,3.218-0.493-8.472,0.294-12.264c0.788-3.791-5.309-4.063-4.355-9.94s0.954-5.878,0.954-5.878L501.828,1179.957z"/>
				<path style="fill:#FFB27D;" d="M490.664,1184.553c0,0,0.024,10.955-0.091,13.12c-0.116,2.165,2.155,0.193,2.472-1.713
					c0.317-1.907,2.273-5.087,3.241-5.354C497.255,1190.338,490.664,1184.553,490.664,1184.553z"/>
			</g>
		</g>
		<path style="fill:#233862;" d="M428.103,1348.083c3.671,36.964,16.945,93.76,16.945,93.76l10.312-7.434
			c0,0,18.159-127.456,21.123-137.819c20.597-72.031,22.947-142.795,22.947-142.795l-60.269-17.786
			c-6.146,10.332-10.913,27.321-9.461,46.544C436.037,1266.422,423.705,1303.805,428.103,1348.083z"/>
		<path style="fill:#FFB27D;" d="M367.206,1181.786c0,0-0.205,4.116-3.333,8.109c-0.708,0.903-2.781,3.293-3.553,2.444
			c-0.772-0.85,2.163-7.271,0.425-11.218C360.122,1179.708,367.206,1181.786,367.206,1181.786z"/>
		<path style="fill:#37598C;" d="M489.156,1445.525c-0.462-1.21-1.472-2.126-2.719-2.486c-3.081-0.893-9.153-1.687-14.715-6.722
			c-3.128-2.826-15.109-10.396-15.109-10.396l-0.063-0.015c-0.264,0.005-1.516,0.39-6.965,4.991
			c-2.817,2.373-7.618-3.354-7.618-3.354s-0.901,0.746-1.574,2.135c-0.541,1.097-0.936,2.603-0.624,4.459
			c0.435,2.617-0.965,7.481-2.081,10.771c-0.677,1.994-1.248,3.407-1.248,3.407s-0.326,1.643,5.557,2.378h6.838
			c2.291-0.36,3.982-1.023,6.331-1.33c3.568-0.468,5.211,0.994,5.537,1.33c0.044,0.044,0.063,0.068,0.063,0.068h29.048
			C490.546,1449.721,489.845,1447.304,489.156,1445.525z"/>
		<path style="fill:#2B478B;" d="M394.3,1345.318c3.671,36.964,16.147,94.975,16.147,94.975l9.114,2.941
			c0,0,20.155-139.045,23.119-149.409c20.598-72.031,23.785-157.55,23.785-157.55l-61.107-3.031
			c-6.145,10.332-10.912,27.321-9.46,46.545C402.232,1263.657,389.901,1301.04,394.3,1345.318z"/>
		<path style="fill:#466AA5;" d="M454.721,1445.525c-0.464-1.21-1.473-2.126-2.721-2.486c-3.08-0.893-9.152-1.687-14.714-6.722
			c-3.129-2.826-15.109-10.396-15.109-10.396l-0.064-0.015c-0.263,0.005-1.516,0.39-6.964,4.991
			c-2.817,2.373-7.369-3.502-7.369-3.502s-1.15,0.895-1.823,2.283c-0.541,1.097-0.936,2.603-0.624,4.459
			c0.435,2.617-0.965,7.481-2.081,10.771c-0.678,1.994-1.248,3.407-1.248,3.407s-0.326,1.643,5.557,2.378h6.838
			c2.291-0.36,3.983-1.023,6.331-1.33c3.568-0.468,5.21,0.994,5.537,1.33c0.044,0.044,0.064,0.068,0.064,0.068h29.048
			C456.109,1449.721,455.407,1447.304,454.721,1445.525z"/>
		<g>
			<path style="fill:#1C468A;" d="M255.213,1436.298c2.321,5.271-0.195,11.372-5.62,13.627c-5.426,2.255-11.706-0.189-14.027-5.46
				c-2.322-5.271,0.194-11.372,5.62-13.627C246.611,1428.583,252.891,1431.026,255.213,1436.298z"/>
			<path style="fill:#1C468A;" d="M331.866,1436.287c2.322,5.271-0.194,11.371-5.62,13.628c-5.426,2.255-11.706-0.19-14.027-5.46
				c-2.322-5.271,0.194-11.372,5.62-13.627C323.264,1428.572,329.544,1431.017,331.866,1436.287z"/>
			<path style="fill:#DD772A;" d="M233.115,1435.012l15.195,5.301c1.537,0.536,3.159,0.802,4.793,0.786l86.219-0.857l9.413-15.159
				L233.115,1435.012z"/>
			<g>
				<path style="fill:#DD772A;" d="M282.082,1267.565l24.084-58.161l0.03-0.112c0.146-0.52,3.895-13.01,25.598-15.803l0.1-0.016
					l17.85-3.269c2.307-0.59,8.971-1.581,12.023,0.921c1.353,1.109,1.901,2.847,1.676,5.31
					c-0.449,4.878-16.477,42.589-27.141,66.747l3.414,1.423c2.739-6.206,26.782-60.83,27.426-67.848
					c0.337-3.674-0.667-6.499-2.987-8.396c-4.987-4.08-14.306-1.908-15.295-1.662l-17.604,3.219
					c-23.37,3.024-28.146,16.759-28.62,18.337l-24.001,57.964L282.082,1267.565z"/>
			</g>
			<path style="fill:#DD772A;" d="M328.295,1250.345l46.529,9.035c0,0,13.567,5.361,10.877,28.458
				c-2.368,20.322-12.751,134.355-12.751,134.355s-2.168,23.729-54.34,16.848L328.295,1250.345z"/>
			<path style="fill:#F99746;" d="M354.09,1281.713l-12.514,127.705c-0.509,5.166-2.395,9.912-5.294,13.896
				c-5.364,7.383-14.193,12.167-24.094,12.227l-43.153,0.26l-1.067,0.01l-27.026,0.162c-2.72,0.018-5.344-0.32-7.831-0.96
				c-0.583-0.148-1.157-0.314-1.724-0.496c-9.355-3.015-16.553-10.41-19.22-19.509c-1.134-3.872-1.452-8.05-0.765-12.332
				L231,1280.485c2.093-13.029,13.013-23.026,26.527-24.283l7.622-0.708l1.818-0.166l0.003-0.002l1.528-0.14l25.479-2.367
				l3.127-0.29l24.587-2.279c3.859-0.358,7.591,0.014,11.066,0.986c0.228,0.064,0.456,0.129,0.683,0.203l1.421,0.471
				C346.989,1256.293,355.415,1268.185,354.09,1281.713z"/>
			<path style="fill:#EF8A3F;" d="M336.283,1423.313c-5.364,7.383-14.193,12.167-24.094,12.227l-43.153,0.26l-1.067,0.01
				l-27.026,0.162c-2.72,0.018-5.344-0.32-7.831-0.96c-0.583-0.148-1.157-0.314-1.724-0.496
				c-9.355-3.015-20.141-14.018-20.294-25.689c0,0,91.286-1.16,110.365,1.702C331.302,1412.005,334.246,1418.69,336.283,1423.313z"
				/>
			<g>
				<g>
					<path style="fill:#DD772A;" d="M268.499,1255.187c-0.189,0.112-20.205,11.96-22.836,22.37
						c-2.704,10.698-20.774,135.389-20.955,136.646c-0.013,0.1-0.51,12.15,9.776,21.128l-1.372-0.319
						c-0.583-0.148-1.157-0.314-1.724-0.496c-9.661-9.318-8.361-20.057-8.294-20.527c0.743-5.148,18.268-126.033,20.987-136.807
						c2.386-9.439,16.497-18.849,21.069-21.688l1.818-0.166l0.003-0.002L268.499,1255.187z"/>
				</g>
				<g>
					<path style="fill:#DD772A;" d="M297.104,1252.529c-2.882,1.891-13.87,10.007-16.215,24.986
						c-2.75,17.569-13.493,145.185-13.601,146.469l-0.007,0.093l-0.029,0.085c-0.021,0.064-1.554,6.953,2.867,11.631l-1.083,0.007
						l-1.067,0.01c-4.233-5.016-2.558-11.175-2.297-12.039c0.335-3.946,10.881-129.062,13.609-146.489
						c2.022-12.909,10.203-20.934,14.697-24.462L297.104,1252.529z"/>
				</g>
				<g>
					<path style="fill:#DD772A;" d="M334.861,1251.912c-0.085,0.048-4.242,2.33-7.825,6.279c-3.581,3.952-7.476,10.037-8.817,18.611
						c-2.75,17.561-11.267,144.749-11.354,146.028l-0.004,0.102l-0.031,0.09c-0.02,0.064-0.396,7.847,4.024,12.525l-2.719,0.016
						c-3.378-4.274-3.169-12.007-2.887-12.925c0.273-4.065,8.632-128.646,11.361-146.074c2.566-16.387,13.766-23.902,16.148-25.328
						c0.228,0.064,0.456,0.129,0.683,0.203L334.861,1251.912z"/>
				</g>
			</g>
		</g>
		<path style="fill:#F77D48;" d="M500.268,1166.128c-5.32,6.219-51.773,5.024-62.238,2.697c-7.173-1.594-12.716-9.167-16.683-22.661
			c-1.308,9.426-4.255,20.483-10.845,21.169c-10.798,1.121-15.265-0.741-16.563-4.839c-0.213-0.666,1.983-29.167,3.884-57.835
			c1.315-19.76,2.493-39.612,2.65-50.457c0.019-1.362,0.019-2.576,0.01-3.643c-17.101-0.954-23.83-0.194-23.83-0.194
			s8.12-26.378,26.841-47.77c17.305-19.77,58.55-13.903,75.261-8.963c10.538,3.114,20.482,14.432,15.338,38.39
			c-3.021,14.098,1.289,36.722,3.014,70.069C498.766,1134.143,501.416,1164.794,500.268,1166.128z"/>
		<path style="fill:#F77D48;" d="M487.434,998.359c0,0,12.917,10.53,20.332,58.108c0,0-4.171,5.755-16.528,4.21
			C478.879,1059.133,487.434,998.359,487.434,998.359z"/>
		<path style="fill:#233862;" d="M473.087,915.519c0,0-29.96-34.025-44.685-11.309c0,0-11.317,5.07-14.914,24.674
			c-3.671,20.001,9.973,34.745,16.706,30.82c4.317-2.518,7.851,5.063,7.851,5.063L473.087,915.519z"/>
		<path style="fill:#233862;" d="M431.47,900.591c0,0-4.332-15.481-27.095-9.971c0,0,10.924-1.687,14.046,2.452
			c0,0-8.8-3.736-14.147-0.256c-5.348,3.482-5.929,14.713-5.021,18.101c0.907,3.387,7.199,13.369,11.178,13.258
			c3.979-0.11,8.591-3.733,8.591-3.733L431.47,900.591z"/>
		<path style="fill:#FFB27D;" d="M435.867,988.443c-0.614-3.382,2.765-9.323,2.171-28.18l1.466,0.246l24.659,4.172
			c0,0,0.575,20.049,0.762,27.32C465.078,998.062,435.399,993.827,435.867,988.443z"/>
		<path style="fill:#E8945B;" d="M464.163,964.682c0,0,0.22,7.269,0.405,14.539c-13.733-0.004-21.898-11.856-25.065-18.711
			L464.163,964.682z"/>
		<path style="fill:#233862;" d="M436.897,957.91c0,0-7.509-11.162-9.506-20.83c-1.426-6.901,1.39-32.713,27.331-29.73
			c0,0,7.525,0.529,14.713,5.098c5.716,3.632,14.04,11.586,5.613,34.275l-2.14,7.646L436.897,957.91z"/>
		<path style="fill:#FFB27D;" d="M468.938,971.438c0,0-32.453,1.44-33.039-18.783c-0.587-20.224-5.17-33.658,15.525-35.434
			c20.695-1.775,24.946,5.825,26.784,12.528C480.046,936.452,477.365,970.542,468.938,971.438z"/>
		<path style="fill:#233862;" d="M466.197,916.313c0,0-8.228,23.976-21.773,27.864c-13.545,3.89-19.565,0.399-19.565,0.399
			s10.233-8.605,12-23.178C436.859,921.399,459.177,905.208,466.197,916.313z"/>
		<path style="fill:#233862;" d="M464.049,918.302c0,0,6.785,5.111,8.548,10.217c1.762,5.105,2.786,15.688,5.866,15.239
			c0,0,6.248-16.314-1.533-25.227C468.678,909.08,464.049,918.302,464.049,918.302z"/>
		<path style="fill:#233862;" d="M465.304,919.069c0,0-5.641,25.023-22.633,33.461c0,0,16.788-15.746,17.792-32.188
			C461.467,903.898,465.304,919.069,465.304,919.069z"/>
		<path style="fill:#FFB27D;" d="M359.666,1164.681c0,0-8.114,9.448-8.992,14.36c-0.877,4.914-0.417,18.031,2.076,18.501
			c2.665,0.502,4.24-8.603,5.098-10.39c2.897-6.03,8.598-3.204,9.358-5.366c0.76-2.163,1.518-12.557,1.518-12.557L359.666,1164.681z
			"/>
		<path style="fill:#FFB27D;" d="M387.114,1034.948c0,0-21.929,42.744-23.165,60.651c-1.236,17.908-4.283,69.081-4.283,69.081
			l9.058,4.549c0,0,18.794-67.45,19.942-77.656c1.279-11.381,38.466-49.123,38.466-49.123L387.114,1034.948z"/>
		<path style="fill:#F77D48;" d="M426.124,1018.507h-32.747l-16.725,31.855c0,0,26.674,22.072,53.245,13.112
			C456.466,1054.514,426.124,1018.507,426.124,1018.507z"/>
	</g>
	<g>
		<rect x="543.644" y="1158.9" style="fill:#BDD1F9;" width="519.603" height="30.953"/>
		<g>
			<path style="fill:#8FADEF;" d="M543.644,1231.728v5.604c0,1.962,0.636,3.564,1.41,3.564h204.521c0.774,0,1.411-1.603,1.411-3.564
				v-5.604c0-1.959-0.637-3.564-1.411-3.564H545.055C544.28,1228.163,543.644,1229.769,543.644,1231.728z"/>
			<path style="fill:#BBD0FF;" d="M543.644,1231.728v5.604c0,1.962,0.583,3.564,1.295,3.564h162.366
				c0.712,0,1.295-1.603,1.295-3.564v-5.604c0-1.959-0.583-3.564-1.295-3.564H544.939
				C544.227,1228.163,543.644,1229.769,543.644,1231.728z"/>
			
				<rect x="595.409" y="1240.898" transform="matrix(-1 -1.224647e-16 1.224647e-16 -1 1336.0146 2693.4277)" style="fill:#AEC3FF;" width="145.196" height="211.631"/>
			
				<rect x="554.719" y="1240.898" transform="matrix(-1 -1.224647e-16 1.224647e-16 -1 1254.6338 2693.4277)" style="fill:#D2E0FF;" width="145.196" height="211.631"/>
			<g>
				<g>
					<path style="fill:#AEC3FF;" d="M562.519,1246.877h129.593v193.968H562.519V1246.877z M690.713,1248.275H563.919v191.17h126.794
						V1248.275z"/>
				</g>
				<g>
					<rect x="563.219" y="1311.043" style="fill:#AEC3FF;" width="128.193" height="1.399"/>
				</g>
				<g>
					<rect x="563.219" y="1376.459" style="fill:#AEC3FF;" width="128.193" height="1.399"/>
				</g>
				<path style="fill:#AEC3FF;" d="M614.18,1259.386h23.788c1.153,0,2.099-0.944,2.099-2.099l0,0c0-1.154-0.945-2.099-2.099-2.099
					H614.18c-1.154,0-2.1,0.944-2.1,2.099l0,0C612.08,1258.441,613.025,1259.386,614.18,1259.386z"/>
				<path style="fill:#AEC3FF;" d="M614.18,1323.356h23.788c1.153,0,2.099-0.944,2.099-2.099l0,0c0-1.154-0.945-2.1-2.099-2.1
					H614.18c-1.154,0-2.1,0.945-2.1,2.1l0,0C612.08,1322.412,613.025,1323.356,614.18,1323.356z"/>
				<path style="fill:#AEC3FF;" d="M614.18,1390.041h23.788c1.153,0,2.099-0.944,2.099-2.099l0,0c0-1.154-0.945-2.099-2.099-2.099
					H614.18c-1.154,0-2.1,0.944-2.1,2.099l0,0C612.08,1389.097,613.025,1390.041,614.18,1390.041z"/>
			</g>
		</g>
		<rect x="595.897" y="1189.854" style="fill:#BDD1F9;" width="30.176" height="40.354"/>
		<rect x="1021.697" y="1189.03" style="fill:#AEC3FF;" width="26.414" height="261.527"/>
	</g>
	<g>
		<path style="fill:#6980E2;" d="M1007.69,1271.709v-132.16c0-23.255-17.025-42.106-38.025-42.106h-85.987
			c-21,0-38.025,18.852-38.025,42.106v132.16H1007.69z"/>
		<path style="fill:#8C9DF4;" d="M998.554,1271.709v-132.16c0-23.255-17.024-42.106-38.025-42.106h-85.986
			c-21,0-38.024,18.852-38.024,42.106v132.16H998.554z"/>
		<path style="fill:#6980E2;" d="M811.198,1292.573h183.849c6.981,0,12.643-5.66,12.643-12.643v-8.222H811.198V1292.573z"/>
		<path style="fill:#AEC3FF;" d="M789.167,1292.573h139.088c5.163,0,9.349-4.185,9.349-9.349v-2.167
			c0-5.163-4.185-9.349-9.349-9.349H789.167c-5.163,0-9.349,4.186-9.349,9.349v2.167
			C779.818,1288.389,784.004,1292.573,789.167,1292.573z"/>
		<g>
			<polygon style="fill:#5C71B7;" points="904.96,1443.477 916.819,1443.477 920.146,1292.573 902.031,1292.573 			"/>
			<polygon style="fill:#5C71B7;" points="853.422,1443.477 968.755,1443.477 968.755,1433.06 909.973,1427.758 853.422,1433.06 			
				"/>
			<path style="fill:#5C71B7;" d="M979.959,1441.842c0-5.24-4.248-9.487-9.486-9.487c-5.24,0-9.488,4.247-9.488,9.487
				c0,5.239,4.248,9.487,9.488,9.487C975.711,1451.329,979.959,1447.081,979.959,1441.842z"/>
			<circle style="fill:#5C71B7;" cx="855.14" cy="1441.842" r="9.487"/>
			<path style="fill:#5C71B7;" d="M857.557,1302.474h107.065c5.468,0,9.899-4.433,9.899-9.9l0,0H847.656l0,0
				C847.656,1298.041,852.089,1302.474,857.557,1302.474z"/>
		</g>
	</g>
	<g>
		<g>
			<g>
				<path style="fill:#FFB27D;" d="M845.138,1383.556c1.381,1.583,1.557,3.352,0.873,5.24c-0.001,0.007-0.004,0.018-0.014,0.025
					c-1.263,3.493-5.438,7.393-10.288,11.288c-0.62,0.499-1.171,0.954-1.651,1.376c-0.126,0.11-0.252,0.221-0.37,0.332
					c-0.099,0.086-0.192,0.176-0.286,0.257c-4.522,4.169-2.821,5.125-10.945,13.585c-9.265,9.64-15.644,9.813-17.458,8.934
					c-1.535-0.748,1.583-5.86,5.039-11.606c0.168-0.277,0.332-0.558,0.505-0.838c0.46-0.764,0.917-1.539,1.374-2.308
					c4.051-6.915,3.01-10.16,2.05-20.452c-0.78-8.363-13.012-46.725-13.012-46.725l17.754-3.059c0,0,5.348,30.547,11.238,35.251
					c3.149,2.508,6.676,2.539,9.704,4.397c0.214,0.13,0.424,0.262,0.63,0.398C842,1380.793,843.753,1381.97,845.138,1383.556z"/>
				<path style="fill:#233862;" d="M845.138,1383.556c1.381,1.583,1.557,3.352,0.873,5.24c-0.001,0.007-0.004,0.018-0.014,0.025
					c-1.547,3.489-5.617,7.369-10.306,11.252c-0.611,0.508-1.152,0.976-1.634,1.412c-0.126,0.11-0.252,0.221-0.37,0.332
					c-0.099,0.086-0.192,0.176-0.286,0.257c-4.522,4.169-2.821,5.125-10.945,13.585c-9.265,9.64-15.644,9.813-17.458,8.934
					c-1.535-0.748,1.583-5.86,5.039-11.606c1.805-0.66,10.182-4.063,16.516-12.169c5.578-7.119,9.299-16.265,13.098-21.563
					c0.214,0.13,0.424,0.262,0.63,0.398C842,1380.793,843.753,1381.97,845.138,1383.556z"/>
				<path style="fill:#FFB27D;" d="M701.977,1372.468c-1.097,5.48-8.908,4.565-17.636,2.433c-8.728-2.132-6.653,0.402-19.074-0.972
					c-12.422-1.375-16.185-6.007-16.563-7.854c-0.339-1.639,5.799-2.217,12.383-2.976c0.827-0.093,1.658-0.195,2.49-0.298
					c7.433-0.933,12.876-5.728,19.627-9.667c6.396-3.731,15.938-18.933,15.938-18.933l17.034,1.35c0,0-8.938,13.577-12.396,19.479
					c-2.033,3.473-1.925,8.063-1.671,11.609C702.24,1368.567,702.366,1370.538,701.977,1372.468z"/>
				<path style="fill:#233862;" d="M684.342,1374.9c-8.728-2.132-6.653,0.402-19.074-0.972c-12.422-1.375-16.185-6.007-16.563-7.854
					c-0.339-1.639,5.799-2.217,12.383-2.976l0.061,0.127c0,0,7.449,5.281,17.789,5.529c8.427,0.205,17.353-2.21,23.173-2.115
					c0.131,1.927,0.257,3.897-0.132,5.827C700.881,1377.948,693.069,1377.033,684.342,1374.9z"/>
				<path style="fill:#233862;" d="M767.259,1263.544l15.925,42.851l20.789,55.949c0,0,5.643,0.546,11.045-1.009
					c4.974-1.438,10.683-5.199,10.683-5.199s-5.773-60.075-16.542-94.56c-2.76-8.853-5.853-16.012-9.267-20.041
					C783.198,1221.805,767.259,1263.544,767.259,1263.544z"/>
				<path style="fill:#2B478B;" d="M783.45,1195.491c10.432-3.364,41.396-1.038,71.286,4.813l5.049-8.329l64.562-5.042
					c0,0,21.305,47.245,9.642,77.349c-1.715,4.424-5.121,7.262-10.928,7.355c-0.002,0.003-0.94-0.003-0.942,0
					c0,0-38.426-0.022-50.903-0.022c-32.106,0-67.949-22.07-72.587-22.998c-7.59-1.518-10.625,13.66-18.215,29.599
					c-7.589,15.938-71.339,70.581-71.339,70.581s-9.799,0.098-13.846-1.421c-4.353-1.633-5.945-3.753-5.945-3.753
					S759.923,1203.082,783.45,1195.491z"/>
				<path style="fill:#233862;" d="M860.165,1103.065c22.99,12.659,69.63,38.9,69.871,38.731c0,0,17.144,6.459,26.868,0
					c16.209-10.764,24.902-39.735-4.741-64.668c-14.784-12.434-25.287-15.461-26.884-35.316
					c-0.866-10.771-15.59-46.32-40.055-43.033c-2.044,0.275-14.629,0.861-22.898,5.205
					C841.25,1015.052,825.7,1098.166,860.165,1103.065z"/>
				<path style="fill:#FFB27D;" d="M879.435,1092.291c-0.102,0.065,11.312,3.962,18.942,0.582
					c7.18-3.173,12.618-14.984,12.511-14.99c-3.265-0.151-6.851-3.007-9.611-21.742l-1.391,0.5l-23.383,8.413
					c0,0,1.694,7.503,2.791,14.646C880.216,1085.697,880.711,1091.442,879.435,1092.291z"/>
				<path style="fill:#ED975D;" d="M876.503,1065.054c0,0,1.694,7.503,2.791,14.646c13.43-2.418,18.7-15.798,20.592-23.06
					L876.503,1065.054z"/>
				<path style="fill:#FFB27D;" d="M873.02,1072.501c0,0,31.991-4.294,29.011-24.175c-2.981-19.882-0.859-33.826-21.41-31.925
					c-20.552,1.901-23.373,10.081-23.993,16.959C856.01,1040.238,864.622,1073.105,873.02,1072.501z"/>
				<path style="fill:#233862;" d="M857.794,1022.463c0,0,20.479,17.647,34.409,19.07c13.931,1.424,19.203-3.048,19.203-3.048
					s-8.211-6.817-13.151-17.819c-1.456-3.243-4.532-5.469-8.074-5.773C880.233,1014.033,861.378,1013.642,857.794,1022.463z"/>
				<path style="fill:#233862;" d="M870.596,1020.882c0,0-6.851,6.624-9.009,11.538c-2.082,4.741-2.706,16.08-1.048,20.585
					c0,0-10.675-20.756-4.632-30.841C862.315,1011.472,870.596,1020.882,870.596,1020.882z"/>
				<path style="fill:#B64C41;" d="M852.497,1139.416c0.967,64.758,0.265,51.227,7.349,57.371c1.706,1.479,6.505,2.361,12.82,2.778
					c19.857,1.318,54.762-1.954,56.09-5.623c4.58-12.697,1.348-16.643,5.168-36.082c0.399-2.067,0.893-4.306,1.47-6.742
					c3.186-13.352,6.288-17.894-5.016-39.344c-10.25-19.431-20.9-35.2-21.858-34.631c-27.045,16.054-29.225,2.56-29.225,2.56
					S852.022,1107.829,852.497,1139.416z"/>
				<path style="fill:#2B478B;" d="M783.184,1306.395l20.789,55.949c0,0,5.643,0.546,11.045-1.009
					c4.974-1.438,10.683-5.199,10.683-5.199s-5.773-60.075-16.542-94.56L783.184,1306.395z"/>
				<path style="fill:#B64C41;" d="M879.294,1079.7c0,0-27.828,4.718-31.097,16.699c-3.268,11.981-22.497,82.419-22.497,82.419
					s14.146,2.541,20.682-3.994c6.535-6.535,22.74-60.634,22.74-60.634L879.294,1079.7z"/>
				<path style="fill:#9B3531;" d="M872.666,1199.565c19.857,1.318,54.762-1.954,56.09-5.623c4.58-12.697,1.348-16.643,5.168-36.082
					l-9.577-26.97c0,0,1.584,30.032-7.272,37.932c-8.848,7.899-36.263,15.248-40.567,21.849
					C874.43,1193.838,873.063,1197.015,872.666,1199.565z"/>
				<path style="fill:#FFB27D;" d="M895.417,1186.934c0,0-19.59-4.361-22.751-2.622c-3.161,1.738-10.887,8.069-11.854,10.272
					s7.038-1.673,9.641-2.371c1.687-0.451,6.125,1.09,8.322,1.823c9.246,3.081,14.911,1.496,14.911,1.496L895.417,1186.934z"/>
				<path style="fill:#B64C41;" d="M908.537,1077.129c0,0,26.305,1.62,35.41,14.32c12.817,17.879,38.246,94.07,23.674,104.232
					c-16.413,11.443-74.693,2.994-74.693,2.994s-1.94-9.065,0.759-13.451c2.698-4.385,46.55-11.468,48.574-13.492
					c2.025-2.024-25.3-39.467-25.3-45.538C916.961,1120.122,908.537,1077.129,908.537,1077.129z"/>
				<path style="fill:#FFB27D;" d="M871.718,1189.763c0,0-4.104,5.296-5.45,5.928s-2.215,0.474-2.215,0.474l2.766-4.978
					L871.718,1189.763z"/>
				<path style="fill:#FFB27D;" d="M872.666,1184.312l-11.935,5.795c0,0,0.509,0.831,1.978,0.764
					c1.47-0.067,5.176-1.423,5.176-1.423L872.666,1184.312z"/>
			</g>
			<g>
				<g>
					<polygon style="fill:#F99746;" points="871.442,1201.68 777.041,1201.68 748.643,1131.063 842.899,1131.063 					"/>
					<polygon style="fill:#ED7D2B;" points="775.934,1198.929 900.592,1198.929 900.592,1201.68 777.041,1201.68 					"/>
				</g>
				<path style="fill:#FFFFFF;" d="M800.871,1166.371c-0.712-2.482,0.724-4.494,3.205-4.494c2.483,0,5.073,2.012,5.784,4.494
					c0.712,2.482-0.724,4.494-3.205,4.494C804.172,1170.865,801.582,1168.854,800.871,1166.371z"/>
			</g>
		</g>
	</g>
	<g>
		<g>
			<path style="fill:#152847;" d="M1109.021,931.095c0,0-10.731-17.198-28.698-3.561c0,0,6.566-2.655,11.624-1.841
				c0,0-16.565,1.972-21.188,21.775c-4.622,19.804,22.806,39.845,22.751,47.646c-0.056,7.801-14.075,19.995-0.188,34.541
				c13.887,14.545,74.081,0.271,81.184,15.635c0,0-2.048-39.364-23.669-41.625c0,0,10.557,1.125,16.415,7.541
				c0,0-8.543-14.723-20.372-12.526c-10.467,1.943-27.246-7.273-28.479-10.261C1117.166,985.433,1109.021,931.095,1109.021,931.095z
				"/>
			<path style="fill:#FFB27D;" d="M1148.058,1018.79c0,0-9.703,19.347-0.122,29.027c9.582,9.681,64.033,24.404,69.582,24.747
				c10.102,0.625,52.259-9.292,52.259-9.292l0.445-7.576c0,0-43.692-3.788-48.565-2.89
				C1214.008,1054.22,1155.517,1015.515,1148.058,1018.79z"/>
			<path style="fill:#2B478B;" d="M1216.67,1066.043c0,0-0.007,0.015-0.021,0.035c-1.661,3.301-3.738,5.627-3.738,5.627
				c-12.972,5.075-47.585-9.183-60.018-15.445c-2.043-1.024-3.485-1.837-4.135-2.318c-4.645-3.386-10.01-17.763-10.914-24.746
				c-0.905-6.977,12.881-20.285,12.881-20.285s57.152,34.111,65.091,42.388C1220.268,1055.941,1218.812,1061.795,1216.67,1066.043z"
				/>
			<path style="fill:#233862;" d="M1216.648,1066.078c-1.661,3.301-3.738,5.627-3.738,5.627
				c-12.972,5.075-47.585-9.183-60.018-15.445l-5.655-19.516l25.198,3.775c0,0,26.592,28.74,34.53,28.64
				C1214.408,1069.068,1216.424,1066.41,1216.648,1066.078z"/>
			<path style="fill:#152847;" d="M1143.197,941.354c0,0-28.2-30.735-41.317-9.562c0,0-10.314,4.877-13.254,22.977
				c-3.001,18.468,9.828,31.773,15.947,28.036c3.925-2.397,7.317,4.509,7.317,4.509L1143.197,941.354z"/>
			<path style="fill:#FFB27D;" d="M1158.483,1027.789h-54.405c0.127-7.429,1.074-12.476,3.252-13.374
				c2.777-1.336,9.62-11.45,7.499-29.906l22.442-0.727c0,0,2.013,22.828,3.384,23.245c3.054,1.884,7.058,1.457,7.058,1.457
				S1150.566,1016.706,1158.483,1027.789z"/>
			<path style="fill:#E8945B;" d="M1138.271,983.783c0,0-0.766,9.14,0,15.084c-12.47,2.036-20.64-8.597-24.532-14.352
				L1138.271,983.783z"/>
			<path style="fill:#152847;" d="M1110.705,981.028c0,0-7.116-10.126-9.137-18.982c-1.44-6.322,0.664-30.118,24.583-27.863
				c0,0,6.932,0.346,13.628,4.412c5.326,3.234,13.134,10.395,5.81,31.424l-1.825,7.073L1110.705,981.028z"/>
			<path style="fill:#FFB27D;" d="M1140.433,992.869c0,0-29.825,1.936-30.745-16.656s-5.389-30.863,13.614-32.886
				c19.004-2.023,23.058,4.889,24.874,11.02C1149.993,960.477,1148.167,991.886,1140.433,992.869z"/>
			<path style="fill:#152847;" d="M1136.874,942.213c0,0-7.116,22.209-19.503,26.041c-12.387,3.833-17.989,0.735-17.989,0.735
				s9.251-8.108,10.602-21.546C1109.983,947.443,1130.207,932.13,1136.874,942.213z"/>
			<path style="fill:#152847;" d="M1134.936,944.082c0,0,6.338,4.574,8.055,9.237c1.718,4.663,2.859,14.378,5.684,13.909
				c0,0,5.439-15.125-1.887-23.178C1139.021,935.513,1134.936,944.082,1134.936,944.082z"/>
			<path style="fill:#152847;" d="M1136.104,944.765c0,0-4.717,23.124-20.188,31.205c0,0,15.146-14.8,15.761-29.944
				C1132.29,930.882,1136.104,944.765,1136.104,944.765z"/>
			<path style="fill:#FFFFFF;" d="M1134.067,982.113c0,0,0.621,2.166,6.057,1.564c0,0,4.563-0.504,4.307-2.905
				C1144.431,980.773,1139.91,979.273,1134.067,982.113z"/>
			<path style="fill:#F99746;" d="M1230.518,1436.638l-11.96-1.004c0,0-60.491-100.328-56.251-132.179
				c0.849-6.39,0.368-13.352-0.995-20.809c-5.422-29.716-24.733-67.242-28.69-107.361c-4.949-50.187,56.44-32.423,56.44-32.423
				s4.601,23.092,9.026,54.928c3.626,26.019,7.139,57.884,7.931,87.761C1207.361,1335.666,1219.929,1390.602,1230.518,1436.638z"/>
			<path style="fill:#AEC3FF;" d="M1255.023,1452.733h-46.786c0,0-1.122-7.131,1.323-12.541c2.341-5.19,4.268-7.839,3.39-14.118
				c7.485,2.48,9.765,2.111,15.331,0.827c0.83,1.343,6.342,13.573,9.109,15.563
				C1240.449,1444.66,1254.082,1443.878,1255.023,1452.733z"/>
			<path style="fill:#ED7D2B;" d="M1198.088,1197.79c-7.55,17.19-26.082,60.082-36.776,84.856
				c-5.422-29.716-24.733-67.242-28.69-107.361c-4.949-50.187,56.44-32.423,56.44-32.423S1193.662,1165.954,1198.088,1197.79z"/>
			<path style="fill:#F99746;" d="M1181.625,1147.951c0,0-32.062,141.57-40.695,167.391c-15.688,46.908-20.78,72.779-24.451,122.766
				l-13.666-1.884c0,0-15.844-112.964-3.197-135.595c10.922-19.545-11.421-129.591,11.904-156.576
				C1134.846,1117.068,1181.625,1147.951,1181.625,1147.951z"/>
			<path style="fill:#AEC3FF;" d="M1142.401,1452.733h-46.786c0,0-1.122-7.131,1.322-12.541c2.341-5.19,5.407-7.997,4.529-14.277
				c5.059,1.963,9.864,2.455,15.842,1.617c0.828,1.344,4.691,12.942,7.46,14.932
				C1127.826,1444.66,1141.459,1443.878,1142.401,1452.733z"/>
			<path style="fill:#2B478B;" d="M1198.088,1171.984c-28.717,25.888-97.151,10.453-99.869-0.354
				c-1.682-6.684-2.898-45.591-1.871-63.266c0.864-14.878-1.311-75.981,0.104-83.601c1.414-7.627,15.473-16.448,15.473-16.448
				s9.818,5.795,20.414,3.718c5.35-1.049,8.11-4.322,7.747-6.248c0,0,7.604,0.354,10.695,1.385
				c7.884,2.629,17.802,10.127,26.99,18.256c4.827,4.269,0.942,24.501,1.359,40.003c0.191,6.969,0.099,13.96-0.119,19.96
				c-0.021,0.523-0.043,1.04-0.064,1.541c-0.227,5.372-0.551,9.832-0.855,12.604c-0.374,3.35,0.82,9.627,2.785,17.154
				C1186.382,1137.766,1203.184,1167.39,1198.088,1171.984z"/>
			<path style="fill:#233862;" d="M1180.876,1116.688c-38.126-7.846-66.938-47.528-66.938-47.528l65.008,17.771
				c-0.227,5.372-0.551,9.832-0.855,12.604C1177.717,1102.883,1178.911,1109.16,1180.876,1116.688z"/>
			<path style="fill:#FFB27D;" d="M1119.094,1030.108c0,0-15.357,19.553-5.125,32.109c10.233,12.558,75.291,39.317,82.119,40.764
				c12.431,2.631,66.45-0.25,66.45-0.25l1.852-8.302c0,0-53.578-12.586-59.779-12.525
				C1194.876,1081.997,1128.912,1027.914,1119.094,1030.108z"/>
			<path style="fill:#2B478B;" d="M1116.326,1017.751c0,0-11.619,14.019-11.691,21.917c-0.071,7.899,4.117,24.847,9.304,29.49
				s56.829,35.626,76.575,31.984c0,0,15.536-11.343,7.105-22.03C1189.188,1068.425,1116.326,1017.751,1116.326,1017.751z"/>
			<path style="fill:#FFB27D;" d="M1270.222,1055.696c0,0,4.67-0.598,5.61-2.054c0.941-1.456,2-3.455,4.471-4.161
				c2.469-0.706,5.513-3.151,5.881-2.94c1.097,0.627-3.646,4.183-2.588,4.561c0.518,0.186,2.659-1.855,4.854-2.814
				c2.293-1.001,1.839-4.505,3.644-2.569c0.732,0.787,1.89,4.732,0.764,6.027c-1.217,1.399-4.145,5.309-5.439,5.939
				c-1.865,0.909-17.642,5.588-17.642,5.588L1270.222,1055.696z"/>
		</g>
		<g>
			<g>
				<g>
					<path style="fill:#233862;" d="M1328.512,1070.129h-81.406c-1.893,0-2.971-1.355-3.201-2.699
						c-0.229-1.343,0.338-2.979,2.123-3.608l42.895-16.037l40.908,15.534c1.873,0.761,2.426,2.533,2.148,3.954
						C1331.701,1068.694,1330.521,1070.129,1328.512,1070.129z M1288.919,1048.79l-42.571,15.916
						c-1.362,0.479-1.667,1.681-1.515,2.565c0.15,0.884,0.836,1.916,2.272,1.916h81.406c1.574,0,2.354-1.129,2.543-2.095
						c0.189-0.967-0.108-2.305-1.568-2.898L1288.919,1048.79z"/>
				</g>
				<g>
					<polygon style="fill:#233862;" points="1289.391,1048.287 1288.45,1048.287 1288.45,1030.727 1289.391,1030.837 					"/>
				</g>
				<g>
					<path style="fill:#233862;" d="M1283.967,1020.787c-1.617,0.701-2.742,2.009-3.259,3.519c-0.131,0.38,0.106,0.79,0.494,0.893
						l0,0c0.122,0.032,0.244-0.044,0.273-0.167c0.377-1.535,1.487-2.894,3.167-3.501c2.062-0.745,4.424-0.004,5.705,1.775
						c1.778,2.47,0.964,5.86-1.616,7.292c-0.086,0.049-0.175,0.093-0.265,0.136l0.303,0.893c0.145-0.059,0.281-0.13,0.418-0.205
						c3.057-1.695,4.029-5.71,1.941-8.641C1289.529,1020.533,1286.497,1019.69,1283.967,1020.787z"/>
				</g>
			</g>
			<polygon style="fill:#F77D48;" points="1253.058,1060.938 1255.917,1104.225 1265.007,1104.225 1257.45,1059.12 			"/>
			<polygon style="fill:#F77D48;" points="1318.678,1058.632 1309.466,1104.225 1316.522,1104.225 1322.678,1060.229 			"/>
			<path style="fill:#F77D48;" d="M1356.256,1299.43c-7.762,0.696-41.022,12.193-46.024,1.383
				c-3.341-7.222-26.775,11.292-36.656,1.883c-9.88-9.41-18.978-1.068-34.277,1.881c-15.299,2.95-25.056-7.514-25.056-7.514
				c4.027-15.45,33.653-110.576,42.094-135.365c1.764-5.175,3.369-9.855,4.705-13.756c2.188-6.374,3.664-10.665,3.966-11.597
				c1.368-4.234-17.173-32.97-9.09-55.082c0.781-2.136,9.09,0,9.09,0s15.525,13.879,22.916,13.644
				c9.495-0.301,21.543-13.644,21.543-13.644s5.89-1.322,7.057,0c9.028,10.247-6.888,54.184-6.888,54.184l8.986,19.925l5.923,13.14
				L1356.256,1299.43z"/>
			<path style="fill:#FFFFFF;" d="M1249.295,1209.063c0-4.065,3.295-7.361,7.36-7.361c4.064,0,7.36,3.296,7.36,7.361
				c0,4.064-3.296,7.359-7.36,7.359C1252.59,1216.422,1249.295,1213.127,1249.295,1209.063z"/>
			<path style="fill:#FFFFFF;" d="M1292.241,1182.785c0-4.065,3.295-7.361,7.36-7.361s7.361,3.296,7.361,7.361
				c0,4.064-3.296,7.359-7.361,7.359S1292.241,1186.85,1292.241,1182.785z"/>
			<path style="fill:#FFFFFF;" d="M1284.71,1157.832c0-1.46,1.185-2.645,2.644-2.645c1.461,0,2.646,1.185,2.646,2.645
				c0,1.461-1.185,2.645-2.646,2.645C1285.895,1160.477,1284.71,1159.293,1284.71,1157.832z"/>
			<path style="fill:#FFFFFF;" d="M1276.654,1127.609c0-1.461,1.185-2.646,2.645-2.646c1.461,0,2.645,1.185,2.645,2.646
				s-1.184,2.645-2.645,2.645C1277.839,1130.254,1276.654,1129.07,1276.654,1127.609z"/>
			<path style="fill:#FFFFFF;" d="M1305.979,1106.936c0-1.461,1.184-2.646,2.645-2.646s2.645,1.185,2.645,2.646
				c0,1.46-1.184,2.644-2.645,2.644S1305.979,1108.396,1305.979,1106.936z"/>
			<path style="fill:#FFFFFF;" d="M1284.71,1211.707c0-1.461,1.185-2.645,2.644-2.645c1.461,0,2.646,1.184,2.646,2.645
				c0,1.46-1.185,2.645-2.646,2.645C1285.895,1214.352,1284.71,1213.167,1284.71,1211.707z"/>
			<path style="fill:#FFFFFF;" d="M1268.286,1185.429c0-1.461,1.185-2.644,2.646-2.644c1.46,0,2.644,1.183,2.644,2.644
				s-1.184,2.646-2.644,2.646C1269.471,1188.074,1268.286,1186.89,1268.286,1185.429z"/>
			<path style="fill:#FFFFFF;" d="M1320.033,1192.79c0-1.461,1.184-2.646,2.645-2.646c1.46,0,2.645,1.185,2.645,2.646
				c0,1.46-1.185,2.644-2.645,2.644C1321.217,1195.434,1320.033,1194.25,1320.033,1192.79z"/>
			<path style="fill:#FFFFFF;" d="M1310.231,1232.321c0-1.461,1.185-2.646,2.645-2.646c1.461,0,2.646,1.185,2.646,2.646
				c0,1.46-1.185,2.644-2.646,2.644C1311.416,1234.965,1310.231,1233.781,1310.231,1232.321z"/>
			<path style="fill:#FFFFFF;" d="M1262.362,1232.321c0-1.461,1.185-2.646,2.645-2.646s2.645,1.185,2.645,2.646
				c0,1.46-1.185,2.644-2.645,2.644S1262.362,1233.781,1262.362,1232.321z"/>
			<path style="fill:#FFFFFF;" d="M1247.82,1258.477c0-4.064,3.295-7.36,7.36-7.36s7.36,3.296,7.36,7.36
				c0,4.065-3.295,7.361-7.36,7.361S1247.82,1262.542,1247.82,1258.477z"/>
			<path style="fill:#FFFFFF;" d="M1320.234,1279.024c0-4.064,3.295-7.359,7.36-7.359s7.36,3.295,7.36,7.359
				c0,4.065-3.295,7.361-7.36,7.361S1320.234,1283.09,1320.234,1279.024z"/>
			<circle style="fill:#FFFFFF;" cx="1285.88" cy="1261.121" r="2.645"/>
			<path style="fill:#FFFFFF;" d="M1310.231,1261.121c0-1.461,1.185-2.645,2.645-2.645c1.461,0,2.646,1.184,2.646,2.645
				s-1.185,2.645-2.646,2.645C1311.416,1263.766,1310.231,1262.582,1310.231,1261.121z"/>
			<path style="fill:#FFFFFF;" d="M1260.888,1281.736c0-1.461,1.185-2.646,2.646-2.646c1.46,0,2.644,1.185,2.644,2.646
				c0,1.46-1.184,2.644-2.644,2.644C1262.072,1284.38,1260.888,1283.196,1260.888,1281.736z"/>
			<path style="fill:#FFFFFF;" d="M1229.128,1281.736c0-1.461,1.185-2.646,2.645-2.646c1.461,0,2.645,1.185,2.645,2.646
				c0,1.46-1.184,2.644-2.645,2.644C1230.313,1284.38,1229.128,1283.196,1229.128,1281.736z"/>
			<path style="fill:#FFFFFF;" d="M1324.544,1168.511c-1.209,0.88-2.7,1.396-4.31,1.396c-4.064,0-7.358-3.292-7.358-7.357
				c0-3.51,2.456-6.446,5.745-7.179L1324.544,1168.511z"/>
			<path style="fill:#FFFFFF;" d="M1320.234,1216.422c0-4.064,3.295-7.359,7.36-7.359s7.36,3.295,7.36,7.359
				c0,4.066-3.295,7.36-7.36,7.36S1320.234,1220.488,1320.234,1216.422z"/>
			<path style="fill:#FFFFFF;" d="M1296.293,1126.039c0-2.073,1.682-3.755,3.755-3.755c2.074,0,3.756,1.682,3.756,3.755
				c0,2.075-1.682,3.756-3.756,3.756C1297.975,1129.795,1296.293,1128.114,1296.293,1126.039z"/>
			<path style="fill:#FFFFFF;" d="M1263.293,1112.421c0-1.929,1.564-3.492,3.493-3.492c1.928,0,3.492,1.563,3.492,3.492
				s-1.564,3.492-3.492,3.492C1264.857,1115.913,1263.293,1114.35,1263.293,1112.421z"/>
			<path style="fill:#FFFFFF;" d="M1267.129,1155.187c0,4.065-3.293,7.363-7.358,7.363c-1.242,0-2.409-0.306-3.435-0.853
				c1.764-5.175,3.369-9.855,4.705-13.756C1264.499,1148.539,1267.129,1151.555,1267.129,1155.187z"/>
			<path style="fill:#FFFFFF;" d="M1308.76,1087.534c-2.037,1.101-0.155,4.549-2.78,6.563c-2.625,2.018-5.218,1.435-6.629,4.102
				c-1.411,2.668-2.668,4.705-5.49,5.176c-2.823,0.471-2.979,2.667-4.859,3.448c-1.882,0.786-1.256-2.823-3.765-2.978
				c-2.508-0.155-1.881-3.609-3.919-5.021c-2.041-1.411-5.806-0.94-7.057-3.293c-1.256-2.353-2.668-4.39-6.587-6.587
				c-3.923-2.191-2.667-7.683-2.667-7.683s15.525,13.879,22.916,13.644c9.495-0.301,21.543-13.644,21.543-13.644
				S1310.797,1086.438,1308.76,1087.534z"/>
		</g>
		<path style="fill:#FFB27D;" d="M1253.058,1091.807l11.332,2.623c0,0,4.546,0.741,7.208,0.922c2.663,0.181,7.646-0.588,9.411,1.646
			c1.763,2.234,8.021,5.302,7.291,5.96c-0.729,0.656-8.351-2.432-8.115-1.726s4.326,5.852,7.169,6.352
			c5.802,1.019,3.612,3.528,3.612,3.528s-5.488,1.794-8.547,1.309s-9.575-7.426-12.197-8.131s-15.479-1.187-15.479-1.187
			L1253.058,1091.807z"/>
	</g>
	<path style="fill:#AEC3FF;" d="M2359.244,1161.465c0,0-38.113,57.137-53.885,91.308c0,0,63.741,12.646,104.483,38.523
		c0,0,28.269-71.335,50.611-102.265C2460.454,1189.031,2399.328,1161.498,2359.244,1161.465z"/>
	<path style="fill:#8CAAED;" d="M2409.843,1291.296c0,0,30.885,5.233,41.729-8.595c10.842-13.829,8.883-93.67,8.883-93.67
		S2412.964,1255.562,2409.843,1291.296z"/>
	<g id="girl_2_2_">
		<path style="fill:#ED985F;" d="M2272.481,1098.979c0,0-52.526,22.885-62.062,22.468c-9.535-0.416-68.288-17.895-68.288-17.895
			l1.497,10.107c0,0,45.34,26.077,61.192,27.556c15.606,1.457,68.97-14.006,74.122-17.271
			C2284.095,1120.681,2287.454,1102.284,2272.481,1098.979z"/>
		<path style="fill:#233862;" d="M2280.374,1014.791c0,0,19.378-3.68,29.028,3.368c17.482,12.767,18.42,56.78,24.974,63.337
			c6.552,6.557,22.346,3.759,23.752,37.685s-6.288,36.764,2.875,51.907c9.163,15.145-3.877,30.302-3.877,30.302
			s5.342-8.36,3.052-14.394c0,0-2.223,13.317-10.683,16.438c-8.461,3.121-9.712,5.409-11.063,9.988c0,0-72.176-36.984-72.255-63.217
			c-0.078-26.233-14.204-52.219-7.268-63.585c0,0-3.089,4.863-3.468,10.272c0,0-4.162-7.974,3.052-15.397
			c7.214-7.423-8.462-22.785-6.141-40.577C2253.945,1028.705,2262.517,1015.324,2280.374,1014.791z"/>
		<path style="fill:#FFB27D;" d="M2266.099,1123.973c4.612,3.201,10.397,5.84,17.658,7.516c27.22,6.289,37.652-16.717,41.57-32.509
			c-3.712-2.124-7.206-2.593-9.223-2.834c-1.968-0.231-4.036-0.385-5.75-0.471c-3.057-2.341-7.61-11.922-8.618-26.799l-1.281,0.344
			l-21.451,5.871c0,0,0.982,6.819,1.464,13.265c0.372,5.044,0.431,9.864-0.524,11.044c-1.675,0.362-2.68,0.6-2.68,0.6
			s0,0.008-0.01,0.021C2276.966,1100.491,2270.741,1110.727,2266.099,1123.973z"/>
		<path style="fill:#ED985F;" d="M2279.002,1075.095c0,0,0.986,6.813,1.465,13.265c12.153-1.217,17.793-12.788,19.99-19.135
			L2279.002,1075.095z"/>
		<path style="fill:#FFB27D;" d="M2275.373,1081.496c0,0,28.848-1.592,27.581-19.541c-1.269-17.95,1.601-30.245-16.871-29.987
			c-18.473,0.257-21.563,7.359-22.597,13.453C2262.451,1051.516,2267.836,1081.447,2275.373,1081.496z"/>
		<path style="fill:#233862;" d="M2263.626,1035.38c4.067-5.719,7.519-4.775,9.52-3.287c15.129-9.788,26.195,2.285,26.195,2.285
			c2.852,12.74,12.668,19.451,12.668,19.451s-5.019,3.621-17.35,1.377c-3.768-0.687-7.258-3.078-10.294-6.064
			c5.49,7.861,12.584,13.3,12.584,13.3c-14.942-5.647-22.193-25.345-22.924-27.431c-1.646,1.706-4.867,5.386-5.683,8.825
			c-1.108,4.674-5.89,11.98-8.655,11.857C2259.688,1055.693,2257.527,1043.956,2263.626,1035.38z"/>
		<path style="fill:#FFFFFF;" d="M2333.543,1182.626c2.605-13.317,11.1-66.525,2.605-83.647c-3.05-6.15-15.021-6.706-28.154-6.166
			c-4.087,2.639-19.659,12.609-26.057,11.364c-0.068-0.013-0.193-0.043-0.357-0.084c-3.012-0.753-4.149-2.87-1.637-4.693
			c0.006-0.005-6.505-0.628-14.584,0.894c-4.562,0.859-16.869,7.227-16.869,7.227s6.198,11.195,15.337,15.061
			c-1.554,13.9,0.757,20.032,15.177,52.138c12.186,27.14-1.645,51.573-1.645,51.573s71.732,57.673,72.132,28.308
			C2349.791,1232.492,2330.214,1199.646,2333.543,1182.626z"/>
		<path style="fill:#DD6D22;" d="M2273.804,1289.002c-3.901-0.44-7.413-2.575-9.594-5.84c-0.346-0.518-0.716-1.074-1.108-1.67
			c-8.165-12.361-11.343-50.215-29.708-90.542c-4.475-9.817-20.532-11.583-24.91-22.683c0,0-10.777-35.973,20.627-37.034
			s84.106,100.093,84.938,110.701C2314.855,1252.212,2334.812,1295.887,2273.804,1289.002z"/>
		<path style="fill:#233862;" d="M2148.984,1288.175h44.698c0,0,1.671-7.129-1.263-11.98c-2.599-4.292-1.603-6.737,0.321-10.289
			c-2.025,0.829-4.646,1.583-7.528,1.418c-2.227-0.128-4.583-1.138-6.647-2.338c-1.925,2.193-10.161,11.529-12.735,13.379
			C2162.909,1280.463,2149.884,1279.716,2148.984,1288.175z"/>
		<path style="fill:#EBEEF2;" d="M2328.831,1112.926c0,0,5.818,52.929-31.911,64.02c-37.729,11.091-48.439-48.7-17.977-53
			C2309.404,1119.645,2328.831,1112.926,2328.831,1112.926z"/>
		<path style="fill:#ED7D2B;" d="M2207.461,1141.633c-2.691,20.178-13.201,83.866-31.742,114.938
			c-5.978,10.018,15.061,15.634,15.174,15.604c2.821-0.738,7.521-5.237,9.688-7.189c15.052-13.566,45.608-51.979,45.608-82.776
			c0-15.016,0.264-43.694-10.655-50.983C2228.81,1126.736,2208.53,1133.618,2207.461,1141.633z"/>
		<path style="fill:#F99746;" d="M2300.457,1288.175c0,0-1.655-2.305-4.544-6.683c-3.438-5.207-7.241-15.453-11.856-28.587
			c-4.85-13.788-10.6-30.752-17.787-48.401c-2.219-5.447-4.574-10.962-7.08-16.468c-4.475-9.818-16.779-8.461-21.158-19.561
			c0,0-17.084-38.475,14.321-39.537c31.403-1.061,91.079,102.925,94.509,112.996
			C2350.614,1252.959,2368.93,1298.738,2300.457,1288.175z"/>
		<path style="fill:#2B478B;" d="M2181.796,1288.175h44.698c0,0,1.672-7.129-1.263-11.98c-2.598-4.292-1.603-6.737,0.321-10.289
			c-2.025,0.829-4.645,1.583-7.527,1.418c-2.228-0.128-4.582-1.138-6.648-2.338c-1.924,2.193-10.161,11.529-12.735,13.379
			C2195.721,1280.463,2182.695,1279.716,2181.796,1288.175z"/>
		<path style="fill:#ED7D2B;" d="M2284.057,1252.905c-4.85-13.788-10.6-30.752-17.787-48.401
			c1.877-13.371,5.926-25.07,12.734-29.786C2279.004,1174.718,2295.522,1225.891,2284.057,1252.905z"/>
		<path style="fill:#F99746;" d="M2233.554,1140.201c-2.692,20.18-6.482,85.298-25.023,116.37
			c-5.978,10.018,15.061,15.634,15.174,15.604c2.821-0.738,7.522-5.237,9.688-7.189c15.053-13.566,45.609-51.979,45.609-82.776
			c0-15.016-17.622-42.49-28.542-49.779C2243.735,1127.94,2234.623,1132.188,2233.554,1140.201z"/>
		<path style="fill:#FFFFFF;" d="M2269.973,1071.173c0,0,2.727-1.078,10.401-0.456c0,0-0.408,2.993-6.067,3.29
			C2271.101,1074.174,2269.973,1071.173,2269.973,1071.173z"/>
		<g>
			<g>
				<polygon style="fill:#163560;" points="2136.526,1082.41 2145.794,1065.689 2165.841,1121.629 2154.014,1134.326 				"/>
				<polygon style="fill:#1C468A;" points="2184.914,1092.202 2203.549,1145.438 2154.014,1134.326 2136.526,1082.41 				"/>
				<polygon style="fill:#EFDECE;" points="2202.561,1142.753 2203.43,1141.234 2185.796,1090.855 2184.914,1092.202 				"/>
				<polygon style="fill:#FCECDB;" points="2185.796,1090.855 2138.833,1081.716 2136.526,1082.41 2184.914,1092.202 				"/>
			</g>
			<polygon style="fill:#EFDECE;" points="2136.526,1082.41 2146.547,1066.503 2152.936,1084.461 2138.833,1081.716 			"/>
		</g>
		<path style="fill:#FFB27D;" d="M2170.61,1099.911c1.612-0.31,5.067-1.612,8.565-2.575c-1.044-0.811-2.206-1.808-2.529-2.83
			c-0.625-1.972-1.041-2.605,1.04-1.981s9.361,3.963,9.361,3.963s-0.016,0.008-0.019,0.01c4.137,1.208,7.948,7.056,7.948,7.056
			s51.214,18.002,57.375,18.312c9.531,0.479,72.975-22.885,72.975-22.885c14.972,3.305,11.613,21.701,6.46,24.966
			c-5.151,3.265-50.803,19.872-77.857,20.185c-13.703,0.158-63.55-31.88-63.55-31.88s-5.826-2.662-10.405-1.831
			c-4.577,0.833-15.189,0-17.479-3.745C2160.207,1102.928,2167.906,1100.432,2170.61,1099.911z"/>
		<path style="fill:#FFFFFF;" d="M2292.641,1110.501c0,0,5.674,17.964,25.161,22.051c0,0,32.181-9.915,16.157-31.838
			C2333.959,1100.714,2318.117,1088.942,2292.641,1110.501z"/>
		<path style="fill:#FFB27D;" d="M2137.361,1101.264l0.004,0.003c-0.014-0.496,0.036-0.988,0.17-1.46c0,0,4.59-7.261,6.094-7.558
			c4.578-0.904,4.578,5.126,3.607,9.015c-0.677,2.709-2.397,5.311-3.791,6.714l0.001,0.001l0.183,5.682
			C2135.894,1109.408,2137.361,1101.264,2137.361,1101.264z"/>
	</g>
	<path style="fill:#233862;" d="M2649.71,1457.452H74.41c-1.589,0-2.891-1.301-2.891-2.89v-0.908c0-1.59,1.301-2.891,2.891-2.891
		h2575.3c1.59,0,2.891,1.301,2.891,2.891v0.908C2652.601,1456.151,2651.3,1457.452,2649.71,1457.452z"/>
</g>
</svg>
